<svg width="176" height="30" viewBox="0 0 176 30" fill="none" xmlns="http://www.w3.org/2000/svg">
<path fill-rule="evenodd" clip-rule="evenodd" d="M22.0498 18.3289C21.0951 17.7047 19.8295 17.9953 19.2231 18.9781L15.1702 25.5464C15.0791 25.694 14.9181 25.7839 14.7447 25.7839H2.04792C0.916885 25.7839 0 26.7277 0 27.8919C0 29.0562 0.916885 30 2.04792 30H15.8028C16.7192 30 17.572 29.5176 18.0634 28.7213L22.6805 21.2386C23.2869 20.2558 23.0045 18.9531 22.0498 18.3289Z" fill="#16D8B5"/>
<path fill-rule="evenodd" clip-rule="evenodd" d="M18.5381 6.24395C18.7332 5.91601 19.2089 5.91858 19.4003 6.24859L30.3648 25.1446C30.5582 25.4779 30.3177 25.8955 29.9323 25.8955H28.5715C28.3874 25.8955 28.2181 25.7943 28.131 25.6321L21.1577 12.6457C20.2787 11.0087 17.9242 10.9596 16.9762 12.5585L12.5834 19.9674C12.4934 20.1193 12.3299 20.2124 12.1533 20.2124H11.1096C10.7219 20.2124 10.4817 19.7901 10.6799 19.4568L18.5381 6.24395ZM21.3429 1.34824C20.3063 -0.438324 17.7047 -0.452108 16.6487 1.32338L5.37866 20.2728C4.31464 22.0619 5.61935 24.3169 7.71848 24.3169H13.2615C14.2248 24.3169 15.116 23.812 15.6032 22.9904L18.9664 17.3179L25.011 28.5747C25.4819 29.4517 26.4041 30 27.4084 30H33.2816C35.3678 30 36.6742 27.77 35.636 25.9808L21.3429 1.34824Z" fill="#16D8B5"/>
<path d="M51.3015 8C52.7466 8 54.0015 8.24071 55.0663 8.72214C56.1311 9.18853 56.9525 9.86554 57.5305 10.7532C58.1086 11.6258 58.3976 12.6563 58.3976 13.8449C58.3976 15.0334 58.1086 16.0639 57.5305 16.9365C56.9525 17.8091 56.1311 18.4861 55.0663 18.9676C54.0015 19.4339 52.7466 19.6671 51.3015 19.6671H48.5178V23.7969H44V8H51.3015ZM51.0277 16.1467C51.9556 16.1467 52.6553 15.9511 53.1268 15.5599C53.5984 15.1537 53.8342 14.582 53.8342 13.8449C53.8342 13.1077 53.5984 12.536 53.1268 12.1298C52.6553 11.7236 51.9556 11.5205 51.0277 11.5205H48.5178V16.1467H51.0277Z" fill="white"/>
<path d="M64.6363 13.0324C65.0774 12.4758 65.6479 12.0621 66.3476 11.7913C67.0625 11.5054 67.8763 11.3625 68.789 11.3625V15.2214C68.3935 15.1763 68.0665 15.1537 67.8079 15.1537C66.88 15.1537 66.1498 15.402 65.6174 15.8984C65.1002 16.3949 64.8416 17.1547 64.8416 18.1777V23.7969H60.5064V11.5656H64.6363V13.0324Z" fill="white"/>
<path d="M76.6729 24C75.3495 24 74.1554 23.7292 73.0906 23.1876C72.0258 22.646 71.1891 21.8937 70.5807 20.9309C69.9874 19.968 69.6908 18.8773 69.6908 17.6587C69.6908 16.4551 69.9874 15.3719 70.5807 14.409C71.1891 13.4462 72.0182 12.7015 73.0677 12.1749C74.1325 11.6333 75.3342 11.3625 76.6729 11.3625C78.0115 11.3625 79.2132 11.6333 80.278 12.1749C81.3428 12.7015 82.1718 13.4462 82.765 14.409C83.3583 15.3568 83.6549 16.4401 83.6549 17.6587C83.6549 18.8773 83.3583 19.968 82.765 20.9309C82.1718 21.8937 81.3428 22.646 80.278 23.1876C79.2132 23.7292 78.0115 24 76.6729 24ZM76.6729 20.5924C77.4334 20.5924 78.0571 20.3366 78.5439 19.8251C79.0306 19.2985 79.274 18.5764 79.274 17.6587C79.274 16.756 79.0306 16.0489 78.5439 15.5374C78.0571 15.0259 77.4334 14.7701 76.6729 14.7701C75.9123 14.7701 75.2886 15.0259 74.8018 15.5374C74.3151 16.0489 74.0717 16.756 74.0717 17.6587C74.0717 18.5764 74.3151 19.2985 74.8018 19.8251C75.2886 20.3366 75.9123 20.5924 76.6729 20.5924Z" fill="white"/>
<path d="M90.6665 11.3625C92.7201 11.3625 94.2868 11.8289 95.3668 12.7616C96.4469 13.6794 96.9869 15.0936 96.9869 17.0042V23.7969H92.9482V22.2172C92.3246 23.4057 91.1076 24 89.2975 24C88.3392 24 87.5102 23.8345 86.8104 23.5035C86.1107 23.1725 85.5783 22.7287 85.2132 22.1721C84.8634 21.6004 84.6884 20.9535 84.6884 20.2313C84.6884 19.0729 85.1372 18.1777 86.0346 17.5458C86.9321 16.8989 88.3164 16.5755 90.1874 16.5755H92.6516C92.5755 15.2816 91.7009 14.6347 90.0276 14.6347C89.4344 14.6347 88.8335 14.7325 88.2251 14.9281C87.6166 15.1086 87.0994 15.3644 86.6735 15.6953L85.2132 12.7842C85.8977 12.3329 86.7268 11.9868 87.7003 11.7461C88.689 11.4904 89.6778 11.3625 90.6665 11.3625ZM90.5068 21.292C91.0088 21.292 91.4499 21.1716 91.8302 20.9309C92.2105 20.6902 92.4843 20.3366 92.6516 19.8702V18.8096H90.7806C89.5181 18.8096 88.8868 19.2233 88.8868 20.0508C88.8868 20.4269 89.0313 20.7278 89.3203 20.9535C89.6093 21.1791 90.0048 21.292 90.5068 21.292Z" fill="white"/>
<path d="M112.729 11.5656V23.7969H108.599V22.488C108.143 22.9845 107.595 23.3606 106.956 23.6164C106.317 23.8721 105.641 24 104.926 24C103.328 24 102.051 23.5336 101.092 22.6008C100.149 21.6681 99.6777 20.2689 99.6777 18.4034V11.5656H104.013V17.7038C104.013 18.6215 104.188 19.291 104.538 19.7123C104.888 20.1335 105.397 20.3441 106.066 20.3441C106.751 20.3441 107.306 20.111 107.732 19.6446C108.173 19.1631 108.394 18.4335 108.394 17.4556V11.5656H112.729Z" fill="white"/>
<path d="M124.055 23.3004C123.69 23.5261 123.241 23.6991 122.709 23.8195C122.192 23.9398 121.636 24 121.043 24C119.431 24 118.191 23.6088 117.324 22.8265C116.457 22.0442 116.023 20.8782 116.023 19.3286V15.2214H114.221V12.0169H116.023V8.83498H120.359V12.0169H123.188V15.2214H120.359V19.2835C120.359 19.7198 120.473 20.0658 120.701 20.3216C120.944 20.5623 121.264 20.6827 121.659 20.6827C122.161 20.6827 122.602 20.5548 122.983 20.299L124.055 23.3004Z" fill="white"/>
<path d="M131.577 24C130.253 24 129.059 23.7292 127.994 23.1876C126.929 22.646 126.093 21.8937 125.484 20.9309C124.891 19.968 124.594 18.8773 124.594 17.6587C124.594 16.4551 124.891 15.3719 125.484 14.409C126.093 13.4462 126.922 12.7015 127.971 12.1749C129.036 11.6333 130.238 11.3625 131.577 11.3625C132.915 11.3625 134.117 11.6333 135.182 12.1749C136.246 12.7015 137.075 13.4462 137.669 14.409C138.262 15.3568 138.559 16.4401 138.559 17.6587C138.559 18.8773 138.262 19.968 137.669 20.9309C137.075 21.8937 136.246 22.646 135.182 23.1876C134.117 23.7292 132.915 24 131.577 24ZM131.577 20.5924C132.337 20.5924 132.961 20.3366 133.448 19.8251C133.934 19.2985 134.178 18.5764 134.178 17.6587C134.178 16.756 133.934 16.0489 133.448 15.5374C132.961 15.0259 132.337 14.7701 131.577 14.7701C130.816 14.7701 130.192 15.0259 129.706 15.5374C129.219 16.0489 128.975 16.756 128.975 17.6587C128.975 18.5764 129.219 19.2985 129.706 19.8251C130.192 20.3366 130.816 20.5924 131.577 20.5924Z" fill="white"/>
<path d="M156.676 11.3625C158.197 11.3625 159.406 11.8138 160.304 12.7165C161.216 13.6192 161.673 14.9807 161.673 16.8011V23.7969H157.337V17.5007C157.337 16.6432 157.17 16.0113 156.835 15.6051C156.516 15.1989 156.06 14.9958 155.466 14.9958C154.812 14.9958 154.288 15.2214 153.892 15.6728C153.497 16.1241 153.299 16.8087 153.299 17.7264V23.7969H148.964V17.5007C148.964 15.8307 148.34 14.9958 147.093 14.9958C146.423 14.9958 145.891 15.2214 145.495 15.6728C145.1 16.1241 144.902 16.8087 144.902 17.7264V23.7969H140.567V11.5656H144.697V12.8519C145.153 12.3554 145.693 11.9868 146.317 11.7461C146.956 11.4904 147.648 11.3625 148.393 11.3625C149.26 11.3625 150.036 11.5205 150.72 11.8364C151.405 12.1523 151.96 12.6338 152.386 13.2807C152.873 12.6638 153.489 12.1899 154.234 11.859C154.98 11.528 155.793 11.3625 156.676 11.3625Z" fill="white"/>
<path d="M169.68 11.3625C171.733 11.3625 173.3 11.8289 174.38 12.7616C175.46 13.6794 176 15.0936 176 17.0042V23.7969H171.961V22.2172C171.338 23.4057 170.121 24 168.311 24C167.352 24 166.523 23.8345 165.824 23.5035C165.124 23.1725 164.591 22.7287 164.226 22.1721C163.877 21.6004 163.702 20.9535 163.702 20.2313C163.702 19.0729 164.15 18.1777 165.048 17.5458C165.945 16.8989 167.33 16.5755 169.201 16.5755H171.665C171.589 15.2816 170.714 14.6347 169.041 14.6347C168.448 14.6347 167.847 14.7325 167.238 14.9281C166.63 15.1086 166.113 15.3644 165.687 15.6953L164.226 12.7842C164.911 12.3329 165.74 11.9868 166.713 11.7461C167.702 11.4904 168.691 11.3625 169.68 11.3625ZM169.52 21.292C170.022 21.292 170.463 21.1716 170.843 20.9309C171.224 20.6902 171.497 20.3366 171.665 19.8702V18.8096H169.794C168.531 18.8096 167.9 19.2233 167.9 20.0508C167.9 20.4269 168.044 20.7278 168.333 20.9535C168.622 21.1791 169.018 21.292 169.52 21.292Z" fill="white"/>
</svg>
