<svg width="182" height="32" viewBox="0 0 182 32" fill="none" xmlns="http://www.w3.org/2000/svg">
    <path fill-rule="evenodd" clip-rule="evenodd" d="M19.5919 6.49154C19.4009 6.15868 18.9217 6.15612 18.7272 6.48691L10.5982 20.3112C10.4022 20.6445 10.6426 21.0646 11.0292 21.0646H12.1434C12.3209 21.0646 12.485 20.9706 12.5748 20.8175L17.1058 13.0881C18.0826 11.4217 20.5087 11.4728 21.4145 13.1789L28.6044 26.7218C28.6912 26.8852 28.8611 26.9874 29.0461 26.9874H30.487C30.8713 26.9874 31.1119 26.5719 30.9207 26.2385L19.5919 6.49154ZM16.7684 1.37917C17.8564 -0.47117 20.5371 -0.456806 21.6053 1.40508L36.3328 27.0763C37.4025 28.9408 36.0564 31.2649 33.9068 31.2649H27.8551C26.8203 31.2649 25.87 30.6935 25.3848 29.7795L22.4706 24.2904L18.8648 29.9675C18.3516 30.7754 17.461 31.2648 16.5039 31.2648H2.13886C0.957649 31.2648 8.96454e-05 30.3073 8.96454e-05 29.126C8.96454e-05 27.9448 0.957649 26.9873 2.13886 26.9873H15.4155C15.5866 26.9873 15.7458 26.8998 15.8376 26.7554L20.076 20.0823C20.1048 20.037 20.135 19.9931 20.1666 19.9506L19.1565 18.0481L15.6911 23.9597C15.1891 24.816 14.2709 25.3421 13.2783 25.3421H7.5668C5.40387 25.3421 4.05951 22.9921 5.15587 21.1276L16.7684 1.37917Z" fill="#16D8B5"/>
    <path d="M52.578 9C54.0779 9 55.3803 9.24071 56.4855 9.72214C57.5906 10.1885 58.4431 10.8655 59.0431 11.7532C59.643 12.6258 59.943 13.6563 59.943 14.8449C59.943 16.0334 59.643 17.0639 59.0431 17.9365C58.4431 18.8091 57.5906 19.4861 56.4855 19.9676C55.3803 20.4339 54.0779 20.6671 52.578 20.6671H49.6889V24.7969H45V9H52.578ZM52.2939 17.1467C53.2569 17.1467 53.9831 16.9511 54.4726 16.5599C54.962 16.1537 55.2067 15.582 55.2067 14.8449C55.2067 14.1077 54.962 13.536 54.4726 13.1298C53.9831 12.7236 53.2569 12.5205 52.2939 12.5205H49.6889V17.1467H52.2939Z" fill="black"/>
    <path d="M66.418 14.0324C66.8758 13.4758 67.4678 13.0621 68.1941 12.7913C68.9361 12.5054 69.7807 12.3625 70.728 12.3625V16.2214C70.3175 16.1763 69.9781 16.1537 69.7097 16.1537C68.7466 16.1537 67.9888 16.402 67.4363 16.8984C66.8995 17.3949 66.6311 18.1547 66.6311 19.1777V24.7969H62.1316V12.5656H66.418V14.0324Z" fill="black"/>
    <path d="M78.9105 25C77.5369 25 76.2976 24.7292 75.1925 24.1876C74.0874 23.646 73.219 22.8937 72.5875 21.9309C71.9718 20.968 71.664 19.8773 71.664 18.6587C71.664 17.4551 71.9718 16.3719 72.5875 15.409C73.219 14.4462 74.0795 13.7015 75.1688 13.1749C76.2739 12.6333 77.5211 12.3625 78.9105 12.3625C80.2998 12.3625 81.547 12.6333 82.6521 13.1749C83.7573 13.7015 84.6177 14.4462 85.2334 15.409C85.8491 16.3568 86.157 17.4401 86.157 18.6587C86.157 19.8773 85.8491 20.968 85.2334 21.9309C84.6177 22.8937 83.7573 23.646 82.6521 24.1876C81.547 24.7292 80.2998 25 78.9105 25ZM78.9105 21.5924C79.6998 21.5924 80.3471 21.3366 80.8523 20.8251C81.3575 20.2985 81.6101 19.5764 81.6101 18.6587C81.6101 17.756 81.3575 17.0489 80.8523 16.5374C80.3471 16.0259 79.6998 15.7701 78.9105 15.7701C78.1211 15.7701 77.4738 16.0259 76.9686 16.5374C76.4634 17.0489 76.2108 17.756 76.2108 18.6587C76.2108 19.5764 76.4634 20.2985 76.9686 20.8251C77.4738 21.3366 78.1211 21.5924 78.9105 21.5924Z" fill="black"/>
    <path d="M93.4342 12.3625C95.5655 12.3625 97.1916 12.8289 98.3126 13.7616C99.4335 14.6794 99.9939 16.0936 99.9939 18.0042V24.7969H95.8023V23.2172C95.155 24.4057 93.892 25 92.0133 25C91.0187 25 90.1583 24.8345 89.432 24.5035C88.7058 24.1725 88.1532 23.7287 87.7743 23.1721C87.4112 22.6004 87.2297 21.9535 87.2297 21.2313C87.2297 20.0729 87.6954 19.1777 88.6269 18.5458C89.5583 17.8989 90.995 17.5755 92.9369 17.5755H95.4945C95.4155 16.2816 94.5077 15.6347 92.7711 15.6347C92.1554 15.6347 91.5318 15.7325 90.9003 15.9281C90.2688 16.1086 89.732 16.3644 89.2899 16.6953L87.7743 13.7842C88.4848 13.3329 89.3452 12.9868 90.3556 12.7461C91.3818 12.4904 92.408 12.3625 93.4342 12.3625ZM93.2684 22.292C93.7894 22.292 94.2472 22.1716 94.6419 21.9309C95.0366 21.6902 95.3208 21.3366 95.4945 20.8702V19.8096H93.5526C92.2422 19.8096 91.587 20.2233 91.587 21.0508C91.587 21.4269 91.737 21.7278 92.037 21.9535C92.3369 22.1791 92.7474 22.292 93.2684 22.292Z" fill="black"/>
    <path d="M116.332 12.5656V24.7969H112.046V23.488C111.572 23.9845 111.004 24.3606 110.341 24.6164C109.678 24.8721 108.975 25 108.233 25C106.576 25 105.25 24.5336 104.255 23.6008C103.276 22.6681 102.787 21.2689 102.787 19.4034V12.5656H107.286V18.7038C107.286 19.6215 107.468 20.291 107.831 20.7123C108.194 21.1335 108.723 21.3441 109.417 21.3441C110.128 21.3441 110.704 21.111 111.146 20.6446C111.604 20.1631 111.833 19.4335 111.833 18.4556V12.5656H116.332Z" fill="black"/>
    <path d="M128.087 24.3004C127.709 24.5261 127.243 24.6991 126.69 24.8195C126.153 24.9398 125.577 25 124.962 25C123.288 25 122.001 24.6088 121.101 23.8265C120.202 23.0442 119.752 21.8782 119.752 20.3286V16.2214H117.881V13.0169H119.752V9.83498H124.251V13.0169H127.188V16.2214H124.251V20.2835C124.251 20.7198 124.369 21.0658 124.606 21.3216C124.859 21.5623 125.19 21.6827 125.601 21.6827C126.122 21.6827 126.58 21.5548 126.974 21.299L128.087 24.3004Z" fill="black"/>
    <path d="M135.894 25C134.52 25 133.281 24.7292 132.176 24.1876C131.071 23.646 130.202 22.8937 129.571 21.9309C128.955 20.968 128.647 19.8773 128.647 18.6587C128.647 17.4551 128.955 16.3719 129.571 15.409C130.202 14.4462 131.063 13.7015 132.152 13.1749C133.257 12.6333 134.505 12.3625 135.894 12.3625C137.283 12.3625 138.53 12.6333 139.635 13.1749C140.741 13.7015 141.601 14.4462 142.217 15.409C142.832 16.3568 143.14 17.4401 143.14 18.6587C143.14 19.8773 142.832 20.968 142.217 21.9309C141.601 22.8937 140.741 23.646 139.635 24.1876C138.53 24.7292 137.283 25 135.894 25ZM135.894 21.5924C136.683 21.5924 137.33 21.3366 137.836 20.8251C138.341 20.2985 138.593 19.5764 138.593 18.6587C138.593 17.756 138.341 17.0489 137.836 16.5374C137.33 16.0259 136.683 15.7701 135.894 15.7701C135.104 15.7701 134.457 16.0259 133.952 16.5374C133.447 17.0489 133.194 17.756 133.194 18.6587C133.194 19.5764 133.447 20.2985 133.952 20.8251C134.457 21.3366 135.104 21.5924 135.894 21.5924Z" fill="black"/>
    <path d="M161.944 12.3625C163.522 12.3625 164.778 12.8138 165.709 13.7165C166.656 14.6192 167.13 15.9807 167.13 17.8011V24.7969H162.63V18.5007C162.63 17.6432 162.457 17.0113 162.109 16.6051C161.778 16.1989 161.304 15.9958 160.689 15.9958C160.01 15.9958 159.465 16.2214 159.055 16.6728C158.644 17.1241 158.439 17.8087 158.439 18.7264V24.7969H153.939V18.5007C153.939 16.8307 153.292 15.9958 151.998 15.9958C151.303 15.9958 150.75 16.2214 150.34 16.6728C149.929 17.1241 149.724 17.8087 149.724 18.7264V24.7969H145.225V12.5656H149.511V13.8519C149.985 13.3554 150.545 12.9868 151.192 12.7461C151.855 12.4904 152.574 12.3625 153.347 12.3625C154.247 12.3625 155.052 12.5205 155.763 12.8364C156.473 13.1523 157.05 13.6338 157.492 14.2807C157.997 13.6638 158.636 13.1899 159.41 12.859C160.183 12.528 161.028 12.3625 161.944 12.3625Z" fill="black"/>
    <path d="M175.44 12.3625C177.572 12.3625 179.198 12.8289 180.319 13.7616C181.44 14.6794 182 16.0936 182 18.0042V24.7969H177.808V23.2172C177.161 24.4057 175.898 25 174.019 25C173.025 25 172.164 24.8345 171.438 24.5035C170.712 24.1725 170.159 23.7287 169.78 23.1721C169.417 22.6004 169.236 21.9535 169.236 21.2313C169.236 20.0729 169.701 19.1777 170.633 18.5458C171.564 17.8989 173.001 17.5755 174.943 17.5755H177.501C177.422 16.2816 176.514 15.6347 174.777 15.6347C174.161 15.6347 173.538 15.7325 172.906 15.9281C172.275 16.1086 171.738 16.3644 171.296 16.6953L169.78 13.7842C170.491 13.3329 171.351 12.9868 172.362 12.7461C173.388 12.4904 174.414 12.3625 175.44 12.3625ZM175.274 22.292C175.795 22.292 176.253 22.1716 176.648 21.9309C177.043 21.6902 177.327 21.3366 177.501 20.8702V19.8096H175.559C174.248 19.8096 173.593 20.2233 173.593 21.0508C173.593 21.4269 173.743 21.7278 174.043 21.9535C174.343 22.1791 174.753 22.292 175.274 22.292Z" fill="black"/>
</svg>
