<svg width="627" height="468" viewBox="0 0 627 468" fill="none" xmlns="http://www.w3.org/2000/svg">
<path d="M626.753 410.398H0V410.711H626.753V410.398Z" fill="#EBEBEB"/>
<path d="M563.953 430.567H522.437V430.88H563.953V430.567Z" fill="#EBEBEB"/>
<path d="M415.186 433.977H404.293V434.29H415.186V433.977Z" fill="#EBEBEB"/>
<path d="M521.183 418.934H497.128V419.248H521.183V418.934Z" fill="#EBEBEB"/>
<path d="M119.898 421.04H65.759V421.354H119.898V421.04Z" fill="#EBEBEB"/>
<path d="M139.001 421.04H131.067V421.354H139.001V421.04Z" fill="#EBEBEB"/>
<path d="M282.227 426.33H164.799V426.643H282.227V426.33Z" fill="#EBEBEB"/>
<path d="M297.081 354.492H55.0415C53.1454 354.488 51.328 353.733 49.9884 352.391C48.6489 351.049 47.8965 349.23 47.8965 347.334V7.09485C47.913 5.2096 48.6726 3.407 50.0105 2.07859C51.3483 0.750171 53.1562 0.00322952 55.0415 0H297.081C298.979 0 300.8 0.754094 302.142 2.09639C303.484 3.43869 304.239 5.25923 304.239 7.15752V347.334C304.239 349.232 303.484 351.053 302.142 352.395C300.8 353.738 298.979 354.492 297.081 354.492ZM55.0415 0.250702C53.2285 0.254023 51.4908 0.976563 50.21 2.25973C48.9292 3.5429 48.2099 5.28184 48.2099 7.09485V347.334C48.2099 349.147 48.9292 350.886 50.21 352.169C51.4908 353.452 53.2285 354.175 55.0415 354.178H297.081C298.895 354.175 300.634 353.453 301.917 352.17C303.2 350.887 303.922 349.148 303.925 347.334V7.09485C303.922 5.28068 303.2 3.54177 301.917 2.25896C300.634 0.976156 298.895 0.254016 297.081 0.250702H55.0415Z" fill="#EBEBEB"/>
<path d="M568.227 354.492H326.175C324.278 354.488 322.459 353.733 321.117 352.392C319.776 351.05 319.021 349.231 319.017 347.334V7.09485C319.037 5.20846 319.8 3.40587 321.139 2.0778C322.479 0.749733 324.288 0.0031943 326.175 0H568.227C570.11 0.00652387 571.915 0.754923 573.25 2.08299C574.585 3.41105 575.343 5.21177 575.359 7.09485V347.334C575.359 349.228 574.609 351.045 573.272 352.386C571.935 353.728 570.121 354.485 568.227 354.492ZM326.175 0.250702C324.361 0.254016 322.622 0.976156 321.339 2.25896C320.056 3.54177 319.334 5.28068 319.331 7.09485V347.334C319.334 349.148 320.056 350.887 321.339 352.17C322.622 353.453 324.361 354.175 326.175 354.178H568.227C570.041 354.175 571.78 353.453 573.063 352.17C574.346 350.887 575.068 349.148 575.071 347.334V7.09485C575.068 5.28068 574.346 3.54177 573.063 2.25896C571.78 0.976156 570.041 0.254016 568.227 0.250702H326.175Z" fill="#EBEBEB"/>
<path d="M297.081 158.08V180.091L308.363 181.157C309.876 188.411 312.747 195.313 316.824 201.501L309.541 210.276L325.109 225.844L333.884 218.561C340.068 222.634 346.967 225.501 354.216 227.01L355.281 238.292H377.431L378.496 227.01C385.75 225.501 392.652 222.634 398.841 218.561L407.615 225.844L423.184 210.276L415.901 201.501C419.974 195.313 422.84 188.41 424.35 181.157L435.694 180.091V158.08L424.35 157.002C422.85 149.742 419.992 142.831 415.926 136.632L423.209 127.858L407.64 112.302L398.866 119.585C392.687 115.517 385.798 112.647 378.559 111.123L377.493 99.8418H355.407L354.341 111.123C347.093 112.642 340.195 115.513 334.009 119.585L325.235 112.302L309.616 127.858L316.899 136.632C312.826 142.817 309.955 149.715 308.438 156.964L297.081 158.08ZM366.375 139.277C372.27 139.277 378.034 141.025 382.936 144.301C387.838 147.576 391.658 152.232 393.914 157.678C396.17 163.125 396.761 169.119 395.611 174.901C394.46 180.683 391.621 185.994 387.453 190.163C383.284 194.332 377.972 197.171 372.19 198.321C366.408 199.471 360.414 198.881 354.968 196.625C349.521 194.369 344.866 190.548 341.59 185.646C338.315 180.744 336.567 174.981 336.567 169.085C336.567 165.167 337.339 161.287 338.84 157.667C340.341 154.047 342.542 150.759 345.315 147.99C348.088 145.221 351.38 143.027 355.002 141.532C358.625 140.037 362.506 139.271 366.425 139.277H366.375Z" fill="#F0F0F0"/>
<path d="M259.927 256.605L266.195 261.845L277.389 250.651L272.149 244.384C275.104 239.928 277.184 234.951 278.279 229.718L286.426 228.953V213.096L278.279 212.331C277.193 207.119 275.131 202.16 272.199 197.716L277.439 191.448L266.245 180.254L259.977 185.494C255.53 182.567 250.572 180.505 245.361 179.414L244.597 171.267H228.727L227.963 179.414C222.751 180.513 217.792 182.584 213.347 185.519L207.079 180.279L195.886 191.473L201.125 197.741C198.194 202.185 196.131 207.144 195.046 212.357L186.898 213.121V228.94L195.046 229.705C196.131 234.917 198.194 239.877 201.125 244.321L195.886 250.588L207.079 261.782L213.347 256.543C217.794 259.469 222.752 261.532 227.963 262.622L228.727 270.77H244.547L245.311 262.622C250.517 261.551 255.476 259.51 259.927 256.605ZM215.227 221.043C215.227 216.806 216.484 212.664 218.838 209.14C221.193 205.617 224.539 202.871 228.455 201.25C232.37 199.629 236.678 199.206 240.834 200.033C244.989 200.861 248.807 202.903 251.802 205.9C254.797 208.897 256.837 212.715 257.662 216.872C258.487 221.028 258.061 225.336 256.438 229.25C254.814 233.164 252.067 236.509 248.542 238.862C245.018 241.214 240.875 242.468 236.637 242.466C233.824 242.466 231.039 241.912 228.441 240.835C225.843 239.758 223.482 238.18 221.494 236.191C219.505 234.201 217.929 231.839 216.853 229.24C215.778 226.641 215.226 223.856 215.227 221.043Z" fill="#F5F5F5"/>
<path d="M330.236 363.768C336.441 362.478 342.345 360.023 347.635 356.535L355.156 362.802L368.531 349.452L362.263 341.931C365.752 336.641 368.206 330.737 369.496 324.533L379.198 323.63V304.828L369.496 303.913C368.212 297.691 365.758 291.769 362.263 286.464L368.531 278.943L355.169 265.618L347.648 271.885C342.354 268.403 336.451 265.949 330.249 264.653L329.334 254.963H310.531L309.616 264.615C303.414 265.911 297.511 268.365 292.217 271.848L284.696 265.58L271.372 278.905L277.639 286.426C274.156 291.72 271.703 297.622 270.406 303.825L260.704 304.74V323.542L270.406 324.445C271.7 330.648 274.154 336.551 277.639 341.844L271.372 349.365L284.696 362.677L292.217 356.409C297.498 359.942 303.403 362.439 309.616 363.768L310.531 373.47H329.334L330.236 363.768ZM294.411 314.191C294.414 309.149 295.911 304.221 298.714 300.03C301.517 295.839 305.5 292.573 310.159 290.645C314.818 288.717 319.944 288.214 324.889 289.199C329.834 290.184 334.376 292.613 337.94 296.18C341.505 299.746 343.932 304.289 344.915 309.234C345.898 314.18 345.392 319.306 343.462 323.964C341.532 328.622 338.264 332.603 334.071 335.404C329.879 338.205 324.95 339.7 319.907 339.7C316.558 339.7 313.242 339.04 310.148 337.758C307.053 336.476 304.242 334.597 301.874 332.228C299.507 329.859 297.629 327.047 296.348 323.952C295.068 320.857 294.409 317.541 294.411 314.191Z" fill="#FAFAFA"/>
<path d="M177.325 135.84L119.66 127.962L111.782 185.626L169.446 193.505L177.325 135.84Z" fill="#F5F5F5"/>
<path d="M128.142 143.773L127.633 147.499L165.178 152.629L165.687 148.903L128.142 143.773Z" fill="#E0E0E0"/>
<path d="M126.539 155.47L126.03 159.196L163.574 164.325L164.084 160.6L126.539 155.47Z" fill="#E0E0E0"/>
<path d="M124.897 167.559L124.388 171.285L146.495 174.306L147.005 170.58L124.897 167.559Z" fill="#E0E0E0"/>
<path d="M500.174 71.7834L441.974 71.9866L442.177 130.187L500.377 129.983L500.174 71.7834Z" fill="#F0F0F0"/>
<path d="M490.499 86.2476L452.606 86.3865L452.619 90.147L490.513 90.0081L490.499 86.2476Z" fill="#E0E0E0"/>
<path d="M490.555 98.0552L452.661 98.1941L452.675 101.955L490.568 101.816L490.555 98.0552Z" fill="#E0E0E0"/>
<path d="M475.006 110.321L452.694 110.403L452.708 114.164L475.02 114.082L475.006 110.321Z" fill="#E0E0E0"/>
<path d="M535.101 213.722L477.362 221.037L484.676 278.776L542.415 271.461L535.101 213.722Z" fill="#F5F5F5"/>
<path d="M527.283 229.321L489.69 234.083L490.163 237.814L527.756 233.052L527.283 229.321Z" fill="#E0E0E0"/>
<path d="M528.768 241.026L491.175 245.788L491.647 249.519L529.24 244.756L528.768 241.026Z" fill="#E0E0E0"/>
<path d="M514.842 255.09L492.707 257.894L493.179 261.625L515.315 258.82L514.842 255.09Z" fill="#E0E0E0"/>
<path d="M225.515 307.435L167.315 307.638L167.518 365.838L225.718 365.635L225.515 307.435Z" fill="#F0F0F0"/>
<path d="M215.906 321.947L178.013 322.085L178.027 325.846L215.92 325.707L215.906 321.947Z" fill="#E0E0E0"/>
<path d="M215.95 333.754L178.057 333.893L178.07 337.654L215.964 337.515L215.95 333.754Z" fill="#E0E0E0"/>
<path d="M200.414 346.02L178.101 346.102L178.115 349.863L200.427 349.781L200.414 346.02Z" fill="#E0E0E0"/>
<path d="M482.569 335.932L424.369 336.135L424.572 394.335L482.772 394.132L482.569 335.932Z" fill="#F0F0F0"/>
<path d="M472.953 350.399L435.06 350.538L435.073 354.298L472.967 354.159L472.953 350.399Z" fill="#E0E0E0"/>
<path d="M473.009 362.207L435.115 362.345L435.129 366.106L473.023 365.967L473.009 362.207Z" fill="#E0E0E0"/>
<path d="M457.46 374.473L435.148 374.554L435.161 378.315L457.474 378.233L457.46 374.473Z" fill="#E0E0E0"/>
<path d="M237.32 67.9819L180.504 80.5986L193.121 137.415L249.937 124.798L237.32 67.9819Z" fill="#F0F0F0"/>
<path d="M230.958 84.2674L193.966 92.4819L194.781 96.153L231.773 87.9385L230.958 84.2674Z" fill="#E0E0E0"/>
<path d="M233.522 95.7984L196.53 104.013L197.345 107.684L234.338 99.4695L233.522 95.7984Z" fill="#E0E0E0"/>
<path d="M220.955 111.087L199.173 115.924L199.988 119.595L221.77 114.758L220.955 111.087Z" fill="#E0E0E0"/>
<path d="M124.398 134.251H123.358L121.916 127.607H125.827L124.398 134.251Z" fill="#E0E0E0"/>
<path d="M123.872 132.608C126.793 132.608 129.161 130.74 129.161 128.434C129.161 126.129 126.793 124.26 123.872 124.26C120.95 124.26 118.582 126.129 118.582 128.434C118.582 130.74 120.95 132.608 123.872 132.608Z" fill="#E6E6E6"/>
<path d="M230.733 76.2507H229.692L228.263 69.6196H232.174L230.733 76.2507Z" fill="#E0E0E0"/>
<path d="M230.219 74.6213C233.147 74.6213 235.521 72.7525 235.521 70.4471C235.521 68.1418 233.147 66.2729 230.219 66.2729C227.291 66.2729 224.917 68.1418 224.917 70.4471C224.917 72.7525 227.291 74.6213 230.219 74.6213Z" fill="#E6E6E6"/>
<path d="M470.241 77.9179H469.2L467.759 71.2869H471.669L470.241 77.9179Z" fill="#E0E0E0"/>
<path d="M469.714 76.2883C472.635 76.2883 475.004 74.4195 475.004 72.1141C475.004 69.8088 472.635 67.9399 469.714 67.9399C466.792 67.9399 464.424 69.8088 464.424 72.1141C464.424 74.4195 466.792 76.2883 469.714 76.2883Z" fill="#E6E6E6"/>
<path d="M529.732 222.059H528.691L527.262 215.428H531.173L529.732 222.059Z" fill="#E0E0E0"/>
<path d="M529.218 220.429C532.139 220.429 534.508 218.56 534.508 216.255C534.508 213.95 532.139 212.081 529.218 212.081C526.297 212.081 523.928 213.95 523.928 216.255C523.928 218.56 526.297 220.429 529.218 220.429Z" fill="#E6E6E6"/>
<path d="M454.509 342.546H453.456L452.027 335.902H455.938L454.509 342.546Z" fill="#E0E0E0"/>
<path d="M453.982 340.904C456.904 340.904 459.272 339.035 459.272 336.729C459.272 334.424 456.904 332.555 453.982 332.555C451.061 332.555 448.693 334.424 448.693 336.729C448.693 339.035 451.061 340.904 453.982 340.904Z" fill="#E6E6E6"/>
<path d="M194.895 312.712H193.855L192.426 306.069H196.337L194.895 312.712Z" fill="#E0E0E0"/>
<path d="M194.381 311.07C197.303 311.07 199.671 309.201 199.671 306.896C199.671 304.591 197.303 302.722 194.381 302.722C191.46 302.722 189.092 304.591 189.092 306.896C189.092 309.201 191.46 311.07 194.381 311.07Z" fill="#E6E6E6"/>
<path d="M313.377 467.006C447.605 467.006 556.419 460.653 556.419 452.817C556.419 444.98 447.605 438.627 313.377 438.627C179.148 438.627 70.3342 444.98 70.3342 452.817C70.3342 460.653 179.148 467.006 313.377 467.006Z" fill="#F5F5F5"/>
<path d="M180.091 242.98C180.091 234.719 185.519 227.938 192.2 227.938C198.881 227.938 204.309 234.656 204.309 242.98C204.309 251.303 198.881 257.946 192.2 257.946C185.519 257.946 180.091 251.24 180.091 242.98ZM182.598 242.98C182.598 249.849 186.91 255.439 192.2 255.439C197.49 255.439 201.802 249.849 201.802 242.98C201.802 236.11 197.503 230.445 192.2 230.445C186.898 230.445 182.598 236.11 182.598 242.98Z" fill="#263238"/>
<path d="M156.262 242.98C156.262 234.719 161.69 227.938 168.371 227.938C175.052 227.938 180.48 234.656 180.48 242.98C180.48 251.303 175.052 257.946 168.371 257.946C161.69 257.946 156.262 251.24 156.262 242.98ZM158.769 242.98C158.769 249.849 163.069 255.439 168.371 255.439C173.673 255.439 177.973 249.849 177.973 242.98C177.973 236.11 173.661 230.445 168.371 230.445C163.081 230.445 158.769 236.11 158.769 242.98Z" fill="#263238"/>
<path d="M132.42 242.98C132.42 234.719 137.861 227.938 144.542 227.938C151.223 227.938 156.651 234.656 156.651 242.98C156.651 251.303 151.21 257.946 144.542 257.946C137.873 257.946 132.42 251.24 132.42 242.98ZM134.927 242.98C134.927 249.849 139.239 255.439 144.542 255.439C149.844 255.439 154.144 249.849 154.144 242.98C154.144 236.11 149.832 230.445 144.542 230.445C139.252 230.445 134.927 236.11 134.927 242.98Z" fill="#263238"/>
<path d="M108.591 242.98C108.591 234.719 114.032 227.938 120.713 227.938C127.394 227.938 132.822 234.656 132.822 242.98C132.822 251.303 127.381 257.946 120.713 257.946C114.044 257.946 108.591 251.24 108.591 242.98ZM111.098 242.98C111.098 249.849 115.41 255.439 120.713 255.439C126.015 255.439 130.315 249.849 130.315 242.98C130.315 236.11 126.003 230.445 120.713 230.445C115.423 230.445 111.098 236.11 111.098 242.98Z" fill="#263238"/>
<path d="M203.92 242.98C203.92 234.719 209.348 227.938 216.029 227.938C222.71 227.938 228.151 234.656 228.151 242.98C228.151 251.303 222.71 257.946 216.029 257.946C209.348 257.946 203.92 251.24 203.92 242.98ZM206.427 242.98C206.427 249.849 210.739 255.439 216.029 255.439C221.319 255.439 225.644 249.849 225.644 242.98C225.644 236.11 221.332 230.445 216.029 230.445C210.727 230.445 206.427 236.11 206.427 242.98Z" fill="#263238"/>
<path d="M92.8347 449.745H242.102L242.102 243.268L92.8347 243.268L92.8347 449.745Z" fill="#263238"/>
<path opacity="0.7" d="M92.8347 449.745H242.102L242.102 243.268L92.8347 243.268L92.8347 449.745Z" fill="white"/>
<path opacity="0.6" d="M106.285 449.745H242.102L242.102 243.268L106.285 243.268L106.285 449.745Z" fill="white"/>
<path opacity="0.2" d="M97.3097 449.746L96.6829 256.781L96.0562 449.746H97.3097Z" fill="black"/>
<path opacity="0.2" d="M103.552 449.745L102.925 268.802L102.299 449.745H103.552Z" fill="black"/>
<path opacity="0.2" d="M99.1775 243.418L99.8042 388.487L100.431 243.418H99.1775Z" fill="black"/>
<path d="M219.639 253.083C219.768 253.751 220.084 254.369 220.551 254.864C221.017 255.36 221.615 255.712 222.275 255.88C222.934 256.048 223.628 256.025 224.275 255.813C224.922 255.602 225.495 255.21 225.927 254.685C226.36 254.16 226.634 253.522 226.718 252.847C226.801 252.171 226.691 251.486 226.4 250.871C226.108 250.256 225.648 249.737 225.072 249.374C224.497 249.01 223.83 248.819 223.149 248.821C222.122 248.929 221.178 249.436 220.522 250.233C219.865 251.03 219.548 252.054 219.639 253.083Z" fill="#263238"/>
<path d="M223.375 254.349C223.554 254.347 223.73 254.307 223.892 254.231C224.055 254.156 224.199 254.046 224.315 253.91C226.841 250.832 228.199 246.961 228.151 242.98C228.151 234.719 222.711 227.938 216.029 227.938C211.116 227.938 206.716 231.573 204.836 237.176C204.783 237.332 204.761 237.497 204.773 237.662C204.784 237.827 204.827 237.988 204.901 238.135C204.974 238.283 205.076 238.415 205.2 238.524C205.324 238.632 205.469 238.715 205.625 238.768C205.782 238.82 205.947 238.842 206.111 238.831C206.276 238.819 206.437 238.776 206.585 238.703C206.733 238.629 206.865 238.528 206.973 238.403C207.082 238.279 207.164 238.134 207.217 237.978C208.746 233.403 212.231 230.457 215.992 230.457C221.294 230.457 225.606 236.06 225.606 242.992C225.659 246.371 224.518 249.66 222.385 252.281C222.225 252.462 222.121 252.686 222.086 252.926C222.051 253.165 222.086 253.41 222.187 253.63C222.287 253.85 222.45 254.036 222.654 254.166C222.858 254.296 223.095 254.364 223.337 254.361L223.375 254.349Z" fill="#263238"/>
<g opacity="0.4">
<path opacity="0.4" d="M223.375 254.349C223.554 254.347 223.73 254.307 223.892 254.231C224.055 254.156 224.199 254.046 224.315 253.91C226.841 250.832 228.199 246.961 228.151 242.98C228.151 234.719 222.711 227.938 216.029 227.938C211.116 227.938 206.716 231.573 204.836 237.176C204.783 237.332 204.761 237.497 204.773 237.662C204.784 237.827 204.827 237.988 204.901 238.135C204.974 238.283 205.076 238.415 205.2 238.524C205.324 238.632 205.469 238.715 205.625 238.768C205.782 238.82 205.947 238.842 206.111 238.831C206.276 238.819 206.437 238.776 206.585 238.703C206.733 238.629 206.865 238.528 206.973 238.403C207.082 238.279 207.164 238.134 207.217 237.978C208.746 233.403 212.231 230.457 215.992 230.457C221.294 230.457 225.606 236.06 225.606 242.992C225.659 246.371 224.518 249.66 222.385 252.281C222.225 252.462 222.121 252.686 222.086 252.926C222.051 253.165 222.086 253.41 222.187 253.63C222.287 253.85 222.45 254.036 222.654 254.166C222.858 254.296 223.095 254.364 223.337 254.361L223.375 254.349Z" fill="white"/>
</g>
<path d="M195.81 253.083C195.941 253.747 196.258 254.36 196.723 254.851C197.189 255.343 197.785 255.691 198.441 255.857C199.097 256.023 199.787 255.999 200.43 255.788C201.073 255.576 201.643 255.187 202.073 254.664C202.504 254.142 202.777 253.508 202.861 252.836C202.944 252.165 202.836 251.483 202.547 250.871C202.259 250.258 201.802 249.741 201.231 249.378C200.66 249.015 199.997 248.822 199.32 248.821C198.293 248.929 197.349 249.436 196.693 250.233C196.036 251.03 195.719 252.054 195.81 253.083Z" fill="#263238"/>
<path d="M199.533 254.349C199.714 254.349 199.893 254.31 200.058 254.234C200.222 254.158 200.368 254.048 200.486 253.91C203.008 250.831 204.362 246.96 204.309 242.98C204.309 234.719 198.881 227.938 192.2 227.938C187.274 227.938 182.887 231.573 181.006 237.176C180.9 237.492 180.923 237.837 181.072 238.135C181.22 238.434 181.48 238.661 181.796 238.768C182.112 238.874 182.457 238.851 182.756 238.703C183.054 238.555 183.282 238.294 183.388 237.978C184.917 233.403 188.402 230.457 192.163 230.457C197.465 230.457 201.764 236.06 201.764 242.992C201.822 246.37 200.686 249.659 198.556 252.281C198.397 252.462 198.293 252.685 198.257 252.923C198.222 253.161 198.256 253.404 198.355 253.624C198.454 253.844 198.614 254.03 198.817 254.161C199.019 254.291 199.255 254.361 199.496 254.361L199.533 254.349Z" fill="#263238"/>
<g opacity="0.4">
<path opacity="0.4" d="M199.533 254.349C199.714 254.349 199.893 254.31 200.058 254.234C200.222 254.158 200.368 254.048 200.486 253.91C203.008 250.831 204.362 246.96 204.309 242.98C204.309 234.719 198.881 227.938 192.2 227.938C187.274 227.938 182.887 231.573 181.006 237.176C180.9 237.492 180.923 237.837 181.072 238.135C181.22 238.434 181.48 238.661 181.796 238.768C182.112 238.874 182.457 238.851 182.756 238.703C183.054 238.555 183.282 238.294 183.388 237.978C184.917 233.403 188.402 230.457 192.163 230.457C197.465 230.457 201.764 236.06 201.764 242.992C201.822 246.37 200.686 249.659 198.556 252.281C198.397 252.462 198.293 252.685 198.257 252.923C198.222 253.161 198.256 253.404 198.355 253.624C198.454 253.844 198.614 254.03 198.817 254.161C199.019 254.291 199.255 254.361 199.496 254.361L199.533 254.349Z" fill="white"/>
</g>
<path d="M171.969 253.083C172.097 253.75 172.413 254.368 172.879 254.863C173.345 255.358 173.942 255.711 174.601 255.879C175.26 256.048 175.953 256.025 176.599 255.815C177.246 255.604 177.819 255.214 178.253 254.69C178.686 254.166 178.961 253.529 179.046 252.854C179.131 252.18 179.023 251.495 178.733 250.879C178.443 250.264 177.985 249.744 177.411 249.379C176.837 249.015 176.171 248.821 175.491 248.821C174.463 248.929 173.518 249.435 172.859 250.232C172.201 251.029 171.881 252.053 171.969 253.083Z" fill="#263238"/>
<path d="M175.704 254.349C175.885 254.349 176.064 254.31 176.228 254.234C176.393 254.158 176.539 254.048 176.657 253.91C179.156 250.822 180.488 246.952 180.417 242.98C180.417 234.719 174.989 227.938 168.308 227.938C163.382 227.938 158.995 231.573 157.114 237.176C157.061 237.332 157.04 237.498 157.051 237.662C157.062 237.827 157.105 237.988 157.178 238.136C157.252 238.284 157.354 238.416 157.478 238.524C157.603 238.633 157.748 238.715 157.904 238.768C158.06 238.821 158.226 238.843 158.391 238.832C158.555 238.821 158.716 238.777 158.864 238.704C159.012 238.63 159.144 238.529 159.253 238.404C159.361 238.279 159.444 238.135 159.496 237.978C161.025 233.403 164.51 230.457 168.271 230.457C173.56 230.457 177.872 236.06 177.872 242.992C177.932 246.372 176.791 249.663 174.651 252.281C174.491 252.462 174.388 252.686 174.352 252.926C174.317 253.165 174.352 253.41 174.453 253.63C174.554 253.85 174.716 254.036 174.92 254.166C175.124 254.296 175.362 254.364 175.604 254.361L175.704 254.349Z" fill="#263238"/>
<g opacity="0.4">
<path opacity="0.4" d="M175.704 254.349C175.885 254.349 176.064 254.31 176.228 254.234C176.393 254.158 176.539 254.048 176.657 253.91C179.156 250.822 180.488 246.952 180.417 242.98C180.417 234.719 174.989 227.938 168.308 227.938C163.382 227.938 158.995 231.573 157.114 237.176C157.061 237.332 157.04 237.498 157.051 237.662C157.062 237.827 157.105 237.988 157.178 238.136C157.252 238.284 157.354 238.416 157.478 238.524C157.603 238.633 157.748 238.715 157.904 238.768C158.06 238.821 158.226 238.843 158.391 238.832C158.555 238.821 158.716 238.777 158.864 238.704C159.012 238.63 159.144 238.529 159.253 238.404C159.361 238.279 159.444 238.135 159.496 237.978C161.025 233.403 164.51 230.457 168.271 230.457C173.56 230.457 177.872 236.06 177.872 242.992C177.932 246.372 176.791 249.663 174.651 252.281C174.491 252.462 174.388 252.686 174.352 252.926C174.317 253.165 174.352 253.41 174.453 253.63C174.554 253.85 174.716 254.036 174.92 254.166C175.124 254.296 175.362 254.364 175.604 254.361L175.704 254.349Z" fill="white"/>
</g>
<path d="M148.139 253.083C148.268 253.75 148.584 254.368 149.05 254.863C149.516 255.358 150.113 255.711 150.772 255.879C151.431 256.048 152.124 256.025 152.77 255.815C153.417 255.604 153.99 255.214 154.423 254.69C154.857 254.166 155.132 253.529 155.217 252.854C155.302 252.18 155.193 251.495 154.904 250.879C154.614 250.264 154.156 249.744 153.582 249.379C153.008 249.015 152.342 248.821 151.662 248.821C150.634 248.929 149.689 249.435 149.03 250.232C148.372 251.029 148.052 252.053 148.139 253.083Z" fill="#263238"/>
<path d="M151.875 254.349C152.056 254.349 152.235 254.31 152.399 254.234C152.564 254.158 152.71 254.048 152.828 253.91C155.327 250.822 156.659 246.952 156.588 242.98C156.588 234.719 151.148 227.938 144.479 227.938C139.553 227.938 135.166 231.573 133.285 237.176C133.219 237.334 133.187 237.505 133.189 237.677C133.192 237.848 133.23 238.018 133.301 238.174C133.372 238.331 133.474 238.471 133.601 238.586C133.728 238.702 133.878 238.789 134.041 238.845C134.203 238.9 134.376 238.921 134.547 238.906C134.718 238.892 134.884 238.843 135.036 238.762C135.187 238.68 135.32 238.569 135.426 238.434C135.533 238.299 135.611 238.144 135.654 237.978C137.184 233.403 140.668 230.457 144.429 230.457C149.719 230.457 154.031 236.06 154.031 242.992C154.084 246.371 152.943 249.66 150.809 252.281C150.65 252.462 150.546 252.686 150.511 252.926C150.476 253.165 150.511 253.41 150.611 253.63C150.712 253.85 150.874 254.036 151.078 254.166C151.283 254.296 151.52 254.364 151.762 254.361L151.875 254.349Z" fill="#263238"/>
<g opacity="0.4">
<path opacity="0.4" d="M151.875 254.349C152.056 254.349 152.235 254.31 152.399 254.234C152.564 254.158 152.71 254.048 152.828 253.91C155.327 250.822 156.659 246.952 156.588 242.98C156.588 234.719 151.148 227.938 144.479 227.938C139.553 227.938 135.166 231.573 133.285 237.176C133.219 237.334 133.187 237.505 133.189 237.677C133.192 237.848 133.23 238.018 133.301 238.174C133.372 238.331 133.474 238.471 133.601 238.586C133.728 238.702 133.878 238.789 134.041 238.845C134.203 238.9 134.376 238.921 134.547 238.906C134.718 238.892 134.884 238.843 135.036 238.762C135.187 238.68 135.32 238.569 135.426 238.434C135.533 238.299 135.611 238.144 135.654 237.978C137.184 233.403 140.668 230.457 144.429 230.457C149.719 230.457 154.031 236.06 154.031 242.992C154.084 246.371 152.943 249.66 150.809 252.281C150.65 252.462 150.546 252.686 150.511 252.926C150.476 253.165 150.511 253.41 150.611 253.63C150.712 253.85 150.874 254.036 151.078 254.166C151.283 254.296 151.52 254.364 151.762 254.361L151.875 254.349Z" fill="white"/>
</g>
<path d="M124.31 253.083C124.31 255.439 125.89 257.345 127.82 257.345C128.813 257.157 129.71 256.629 130.355 255.851C131 255.073 131.353 254.093 131.353 253.083C131.353 252.072 131 251.093 130.355 250.315C129.71 249.537 128.813 249.008 127.82 248.821C125.89 248.821 124.31 250.701 124.31 253.083Z" fill="#263238"/>
<path d="M128.046 254.349C128.227 254.349 128.406 254.31 128.57 254.234C128.735 254.158 128.881 254.048 128.998 253.91C131.493 250.819 132.824 246.951 132.759 242.98C132.759 234.719 127.319 227.938 120.65 227.938C115.724 227.938 111.324 231.573 109.456 237.176C109.39 237.334 109.358 237.505 109.36 237.677C109.363 237.848 109.401 238.018 109.472 238.174C109.542 238.331 109.645 238.471 109.772 238.586C109.899 238.702 110.049 238.789 110.212 238.845C110.374 238.9 110.547 238.921 110.718 238.906C110.889 238.892 111.055 238.843 111.207 238.762C111.358 238.68 111.491 238.569 111.597 238.434C111.704 238.299 111.781 238.144 111.825 237.978C113.355 233.403 116.839 230.457 120.6 230.457C125.89 230.457 130.202 236.06 130.202 242.992C130.255 246.371 129.114 249.66 126.98 252.281C126.871 252.405 126.787 252.55 126.734 252.708C126.681 252.865 126.659 253.031 126.671 253.197C126.683 253.362 126.727 253.524 126.802 253.672C126.876 253.821 126.98 253.953 127.106 254.061C127.235 254.17 127.385 254.251 127.546 254.301C127.708 254.35 127.878 254.367 128.046 254.349Z" fill="#263238"/>
<g opacity="0.4">
<path opacity="0.4" d="M128.046 254.349C128.227 254.349 128.406 254.31 128.57 254.234C128.735 254.158 128.881 254.048 128.998 253.91C131.493 250.819 132.824 246.951 132.759 242.98C132.759 234.719 127.319 227.938 120.65 227.938C115.724 227.938 111.324 231.573 109.456 237.176C109.39 237.334 109.358 237.505 109.36 237.677C109.363 237.848 109.401 238.018 109.472 238.174C109.542 238.331 109.645 238.471 109.772 238.586C109.899 238.702 110.049 238.789 110.212 238.845C110.374 238.9 110.547 238.921 110.718 238.906C110.889 238.892 111.055 238.843 111.207 238.762C111.358 238.68 111.491 238.569 111.597 238.434C111.704 238.299 111.781 238.144 111.825 237.978C113.355 233.403 116.839 230.457 120.6 230.457C125.89 230.457 130.202 236.06 130.202 242.992C130.255 246.371 129.114 249.66 126.98 252.281C126.871 252.405 126.787 252.55 126.734 252.708C126.681 252.865 126.659 253.031 126.671 253.197C126.683 253.362 126.727 253.524 126.802 253.672C126.876 253.821 126.98 253.953 127.106 254.061C127.235 254.17 127.385 254.251 127.546 254.301C127.708 254.35 127.878 254.367 128.046 254.349Z" fill="white"/>
</g>
<path d="M145.507 338.259H135.003V356.171H145.507V338.259Z" fill="#16D8B5"/>
<path d="M162.517 325.222H152.013V356.171H162.517V325.222Z" fill="#16D8B5"/>
<path d="M179.54 330.111H169.035V356.171H179.54V330.111Z" fill="#16D8B5"/>
<path d="M196.562 317.074H186.058V356.171H196.562V317.074Z" fill="#16D8B5"/>
<path d="M213.573 304.038H203.068V356.171H213.573V304.038Z" fill="#16D8B5"/>
<path opacity="0.5" d="M145.507 338.259H135.003V356.171H145.507V338.259Z" fill="white"/>
<path opacity="0.5" d="M162.517 325.222H152.013V356.171H162.517V325.222Z" fill="white"/>
<path opacity="0.5" d="M179.54 330.111H169.035V356.171H179.54V330.111Z" fill="white"/>
<path opacity="0.5" d="M196.562 317.074H186.058V356.171H196.562V317.074Z" fill="white"/>
<path opacity="0.5" d="M213.573 304.038H203.068V356.171H213.573V304.038Z" fill="white"/>
<path d="M227.587 353.689H120.575V358.653H227.587V353.689Z" fill="#263238"/>
<path d="M125.087 341.944L122.781 339.036L157.102 311.722L174.087 321.574L219.94 282.49L222.347 285.31L174.501 326.112L157.44 316.209L125.087 341.944Z" fill="#16D8B5"/>
<path d="M223.876 281.6L216.907 282.678L221.821 287.918L223.876 281.6Z" fill="#16D8B5"/>
<g opacity="0.3">
<path opacity="0.3" d="M181.257 374.798H120.7C120.368 374.798 120.049 374.666 119.814 374.431C119.579 374.196 119.447 373.877 119.447 373.545C119.447 373.212 119.579 372.893 119.814 372.658C120.049 372.423 120.368 372.291 120.7 372.291H181.257C181.59 372.291 181.908 372.423 182.144 372.658C182.379 372.893 182.511 373.212 182.511 373.545C182.511 373.877 182.379 374.196 182.144 374.431C181.908 374.666 181.59 374.798 181.257 374.798Z" fill="black"/>
</g>
<g opacity="0.3">
<path opacity="0.3" d="M228.038 385.967H129.349C129.017 385.967 128.698 385.835 128.463 385.6C128.228 385.365 128.096 385.046 128.096 384.713C128.096 384.381 128.228 384.062 128.463 383.827C128.698 383.592 129.017 383.46 129.349 383.46H228.038C228.37 383.46 228.689 383.592 228.924 383.827C229.159 384.062 229.292 384.381 229.292 384.713C229.292 385.046 229.159 385.365 228.924 385.6C228.689 385.835 228.37 385.967 228.038 385.967Z" fill="black"/>
<path opacity="0.3" d="M228.138 392.247H120.7C120.368 392.247 120.049 392.115 119.814 391.88C119.579 391.645 119.447 391.326 119.447 390.993C119.447 390.661 119.579 390.342 119.814 390.107C120.049 389.872 120.368 389.74 120.7 389.74H228.138C228.471 389.74 228.79 389.872 229.025 390.107C229.26 390.342 229.392 390.661 229.392 390.993C229.392 391.326 229.26 391.645 229.025 391.88C228.79 392.115 228.471 392.247 228.138 392.247Z" fill="black"/>
<path opacity="0.3" d="M228.314 398.527H120.838C120.506 398.527 120.187 398.395 119.952 398.16C119.717 397.925 119.585 397.606 119.585 397.274C119.585 396.941 119.717 396.622 119.952 396.387C120.187 396.152 120.506 396.02 120.838 396.02H228.314C228.646 396.02 228.965 396.152 229.2 396.387C229.435 396.622 229.567 396.941 229.567 397.274C229.567 397.606 229.435 397.925 229.2 398.16C228.965 398.395 228.646 398.527 228.314 398.527Z" fill="black"/>
<path opacity="0.3" d="M210.89 404.807H120.976C120.644 404.807 120.325 404.675 120.09 404.44C119.855 404.205 119.723 403.886 119.723 403.554C119.723 403.221 119.855 402.902 120.09 402.667C120.325 402.432 120.644 402.3 120.976 402.3H210.89C211.223 402.3 211.541 402.432 211.777 402.667C212.012 402.902 212.144 403.221 212.144 403.554C212.144 403.886 212.012 404.205 211.777 404.44C211.541 404.675 211.223 404.807 210.89 404.807Z" fill="black"/>
</g>
<g opacity="0.3">
<path opacity="0.3" d="M228.038 416.076H129.349C129.017 416.076 128.698 415.944 128.463 415.709C128.228 415.474 128.096 415.155 128.096 414.823C128.096 414.49 128.228 414.172 128.463 413.936C128.698 413.701 129.017 413.569 129.349 413.569H228.038C228.37 413.569 228.689 413.701 228.924 413.936C229.159 414.172 229.292 414.49 229.292 414.823C229.292 415.155 229.159 415.474 228.924 415.709C228.689 415.944 228.37 416.076 228.038 416.076Z" fill="black"/>
<path opacity="0.3" d="M228.138 422.356H120.7C120.368 422.356 120.049 422.224 119.814 421.989C119.579 421.754 119.447 421.435 119.447 421.103C119.447 420.77 119.579 420.452 119.814 420.216C120.049 419.981 120.368 419.849 120.7 419.849H228.138C228.471 419.849 228.79 419.981 229.025 420.216C229.26 420.452 229.392 420.77 229.392 421.103C229.392 421.435 229.26 421.754 229.025 421.989C228.79 422.224 228.471 422.356 228.138 422.356Z" fill="black"/>
<path opacity="0.3" d="M228.314 428.699H120.838C120.506 428.699 120.187 428.567 119.952 428.332C119.717 428.097 119.585 427.778 119.585 427.446C119.585 427.113 119.717 426.794 119.952 426.559C120.187 426.324 120.506 426.192 120.838 426.192H228.314C228.646 426.192 228.965 426.324 229.2 426.559C229.435 426.794 229.567 427.113 229.567 427.446C229.567 427.778 229.435 428.097 229.2 428.332C228.965 428.567 228.646 428.699 228.314 428.699Z" fill="black"/>
<path opacity="0.3" d="M210.89 434.967H120.976C120.644 434.967 120.325 434.835 120.09 434.6C119.855 434.364 119.723 434.046 119.723 433.713C119.723 433.381 119.855 433.062 120.09 432.827C120.325 432.592 120.644 432.46 120.976 432.46H210.89C211.223 432.46 211.541 432.592 211.777 432.827C212.012 433.062 212.144 433.381 212.144 433.713C212.144 434.046 212.012 434.364 211.777 434.6C211.541 434.835 211.223 434.967 210.89 434.967Z" fill="black"/>
</g>
<g opacity="0.3">
<path opacity="0.3" d="M181.257 270.657H120.7C120.368 270.657 120.049 270.525 119.814 270.29C119.579 270.055 119.447 269.736 119.447 269.403C119.447 269.071 119.579 268.752 119.814 268.517C120.049 268.282 120.368 268.15 120.7 268.15H181.257C181.59 268.15 181.908 268.282 182.144 268.517C182.379 268.752 182.511 269.071 182.511 269.403C182.511 269.736 182.379 270.055 182.144 270.29C181.908 270.525 181.59 270.657 181.257 270.657Z" fill="black"/>
</g>
<path d="M514.489 145.708H370.549C368.154 145.708 366.212 147.65 366.212 150.045V387.835C366.212 390.23 368.154 392.172 370.549 392.172H514.489C516.885 392.172 518.826 390.23 518.826 387.835V150.045C518.826 147.65 516.885 145.708 514.489 145.708Z" fill="#16D8B5"/>
<path d="M402.175 144.529H482.876C483.089 144.529 483.293 144.614 483.443 144.764C483.594 144.915 483.678 145.119 483.678 145.332V153.404H401.36V145.332C401.36 145.225 401.381 145.12 401.423 145.022C401.464 144.924 401.524 144.835 401.6 144.76C401.676 144.685 401.765 144.626 401.864 144.587C401.963 144.547 402.069 144.528 402.175 144.529Z" fill="#263238"/>
<path opacity="0.9" d="M512.797 153.404H372.254V384.438H512.797V153.404Z" fill="white"/>
<path d="M470.065 164.034H445.358L445.07 163.169C444.895 162.634 444.556 162.167 444.1 161.836C443.644 161.505 443.095 161.327 442.532 161.327C441.968 161.327 441.419 161.505 440.963 161.836C440.507 162.167 440.168 162.634 439.993 163.169L439.705 164.034H414.973C414.015 164.034 413.095 163.654 412.416 162.977C411.737 162.301 411.354 161.383 411.351 160.424V151.323C411.357 150.366 411.741 149.45 412.42 148.774C413.098 148.098 414.016 147.717 414.973 147.713H470.127C471.084 147.717 472 148.098 472.677 148.774C473.353 149.451 473.734 150.367 473.738 151.323V160.449C473.734 160.926 473.637 161.398 473.45 161.837C473.263 162.277 472.991 162.674 472.649 163.008C472.308 163.341 471.903 163.604 471.46 163.78C471.016 163.956 470.542 164.042 470.065 164.034ZM447.076 161.527H470.065C470.21 161.529 470.354 161.501 470.489 161.446C470.624 161.392 470.746 161.31 470.849 161.208C470.951 161.105 471.033 160.983 471.087 160.848C471.142 160.713 471.17 160.569 471.168 160.424V151.323C471.168 151.031 471.052 150.75 470.845 150.543C470.638 150.337 470.357 150.22 470.065 150.22H414.911C414.765 150.219 414.62 150.246 414.485 150.301C414.349 150.355 414.226 150.436 414.122 150.539C414.019 150.642 413.936 150.764 413.88 150.898C413.824 151.033 413.795 151.178 413.795 151.323V160.449C413.795 160.595 413.824 160.739 413.88 160.874C413.936 161.009 414.019 161.131 414.122 161.233C414.226 161.336 414.349 161.417 414.485 161.472C414.62 161.526 414.765 161.554 414.911 161.552H437.975C438.419 160.73 439.076 160.043 439.878 159.564C440.681 159.085 441.597 158.833 442.532 158.833C443.466 158.833 444.383 159.085 445.185 159.564C445.987 160.043 446.645 160.73 447.088 161.552L447.076 161.527Z" fill="#263238"/>
<g opacity="0.5">
<path opacity="0.5" d="M470.065 164.034H445.358L445.07 163.169C444.895 162.634 444.556 162.167 444.1 161.836C443.644 161.505 443.095 161.327 442.532 161.327C441.968 161.327 441.419 161.505 440.963 161.836C440.507 162.167 440.168 162.634 439.993 163.169L439.705 164.034H414.973C414.015 164.034 413.095 163.654 412.416 162.977C411.737 162.301 411.354 161.383 411.351 160.424V151.323C411.357 150.366 411.741 149.45 412.42 148.774C413.098 148.098 414.016 147.717 414.973 147.713H470.127C471.084 147.717 472 148.098 472.677 148.774C473.353 149.451 473.734 150.367 473.738 151.323V160.449C473.734 160.926 473.637 161.398 473.45 161.837C473.263 162.277 472.991 162.674 472.649 163.008C472.308 163.341 471.903 163.604 471.46 163.78C471.016 163.956 470.542 164.042 470.065 164.034ZM447.076 161.527H470.065C470.21 161.529 470.354 161.501 470.489 161.446C470.624 161.392 470.746 161.31 470.849 161.208C470.951 161.105 471.033 160.983 471.087 160.848C471.142 160.713 471.17 160.569 471.168 160.424V151.323C471.168 151.031 471.052 150.75 470.845 150.543C470.638 150.337 470.357 150.22 470.065 150.22H414.911C414.765 150.219 414.62 150.246 414.485 150.301C414.349 150.355 414.226 150.436 414.122 150.539C414.019 150.642 413.936 150.764 413.88 150.898C413.824 151.033 413.795 151.178 413.795 151.323V160.449C413.795 160.595 413.824 160.739 413.88 160.874C413.936 161.009 414.019 161.131 414.122 161.233C414.226 161.336 414.349 161.417 414.485 161.472C414.62 161.526 414.765 161.554 414.911 161.552H437.975C438.419 160.73 439.076 160.043 439.878 159.564C440.681 159.085 441.597 158.833 442.532 158.833C443.466 158.833 444.383 159.085 445.185 159.564C445.987 160.043 446.645 160.73 447.088 161.552L447.076 161.527Z" fill="white"/>
</g>
<path d="M466.204 146.259H418.847C418.161 146.259 417.606 146.815 417.606 147.5V150.471C417.606 151.156 418.161 151.712 418.847 151.712H466.204C466.89 151.712 467.445 151.156 467.445 150.471V147.5C467.445 146.815 466.89 146.259 466.204 146.259Z" fill="#263238"/>
<path opacity="0.2" d="M466.204 146.259H418.847C418.161 146.259 417.606 146.815 417.606 147.5V150.471C417.606 151.156 418.161 151.712 418.847 151.712H466.204C466.89 151.712 467.445 151.156 467.445 150.471V147.5C467.445 146.815 466.89 146.259 466.204 146.259Z" fill="white"/>
<path d="M501.805 346.954C505.19 332.616 496.31 318.249 481.972 314.865C467.633 311.481 453.267 320.361 449.883 334.699C446.499 349.037 455.379 363.403 469.717 366.788C484.055 370.172 498.421 361.292 501.805 346.954Z" fill="#16D8B5"/>
<path opacity="0.3" d="M475.856 340.854H502.531C502.531 346.129 500.966 351.287 498.035 355.673C495.104 360.06 490.938 363.479 486.064 365.498C481.19 367.517 475.826 368.045 470.652 367.016C465.478 365.986 460.725 363.446 456.994 359.715C453.264 355.985 450.723 351.232 449.694 346.058C448.665 340.883 449.193 335.52 451.212 330.646C453.231 325.771 456.65 321.605 461.036 318.674C465.423 315.743 470.58 314.179 475.856 314.179H475.956L475.856 340.854Z" fill="white"/>
<path opacity="0.3" d="M475.856 340.854L490.246 363.304C486.758 365.542 482.796 366.937 478.674 367.377C474.552 367.818 470.385 367.291 466.502 365.84C462.62 364.389 459.128 362.053 456.306 359.017C453.483 355.982 451.407 352.33 450.242 348.352C449.077 344.374 448.855 340.18 449.593 336.101C450.332 332.022 452.01 328.172 454.496 324.855C456.982 321.538 460.207 318.847 463.915 316.993C467.623 315.14 471.711 314.177 475.856 314.179H475.944L475.856 340.854Z" fill="white"/>
<path opacity="0.3" d="M475.856 340.854L453.368 355.194C450.798 351.162 449.358 346.513 449.2 341.734C449.042 336.955 450.172 332.222 452.471 328.029C454.77 323.837 458.153 320.339 462.267 317.902C466.381 315.466 471.075 314.18 475.856 314.179H475.944L475.856 340.854Z" fill="white"/>
<g opacity="0.5">
<path opacity="0.5" d="M382.382 194.782V257.734H502.719V194.782H382.382ZM501.728 204.61H480.908V195.723H501.728V204.61ZM435.23 204.61H413.795V195.723H435.23V204.61ZM436.17 195.723H457.592V204.61H436.22L436.17 195.723ZM435.23 205.55V256.793H413.795V205.575L435.23 205.55ZM436.17 205.55H457.592V256.793H436.22L436.17 205.55ZM458.533 205.55H479.968V256.793H458.533V205.55ZM458.533 204.61V195.723H479.968V204.61H458.533ZM412.855 195.723V204.61H383.322V195.723H412.855ZM383.322 205.575H412.855V256.819H383.322V205.575ZM480.908 256.819V205.575H501.728V256.819H480.908Z" fill="black"/>
<path opacity="0.5" d="M420.627 214.35H429.301C429.633 214.35 429.952 214.218 430.187 213.983C430.422 213.748 430.554 213.429 430.554 213.096C430.554 212.764 430.422 212.445 430.187 212.21C429.952 211.975 429.633 211.843 429.301 211.843H420.627C420.294 211.843 419.975 211.975 419.74 212.21C419.505 212.445 419.373 212.764 419.373 213.096C419.373 213.429 419.505 213.748 419.74 213.983C419.975 214.218 420.294 214.35 420.627 214.35Z" fill="black"/>
<path opacity="0.5" d="M442.488 225.719H451.901C452.234 225.719 452.553 225.587 452.788 225.352C453.023 225.117 453.155 224.798 453.155 224.465C453.155 224.133 453.023 223.814 452.788 223.579C452.553 223.344 452.234 223.212 451.901 223.212H442.488C442.155 223.212 441.836 223.344 441.601 223.579C441.366 223.814 441.234 224.133 441.234 224.465C441.234 224.798 441.366 225.117 441.601 225.352C441.836 225.587 442.155 225.719 442.488 225.719Z" fill="black"/>
<path opacity="0.5" d="M452.353 245.963H442.488C442.155 245.963 441.836 246.095 441.601 246.33C441.366 246.565 441.234 246.884 441.234 247.217C441.234 247.549 441.366 247.868 441.601 248.103C441.836 248.338 442.155 248.47 442.488 248.47H452.315C452.648 248.47 452.966 248.338 453.202 248.103C453.437 247.868 453.569 247.549 453.569 247.217C453.569 246.884 453.437 246.565 453.202 246.33C452.966 246.095 452.648 245.963 452.315 245.963H452.353Z" fill="black"/>
<path opacity="0.5" d="M474.164 234.581H463.797C463.465 234.581 463.146 234.713 462.911 234.948C462.676 235.184 462.544 235.502 462.544 235.835C462.544 236.167 462.676 236.486 462.911 236.721C463.146 236.956 463.465 237.088 463.797 237.088H474.189C474.521 237.088 474.84 236.956 475.075 236.721C475.31 236.486 475.443 236.167 475.443 235.835C475.443 235.502 475.31 235.184 475.075 234.948C474.84 234.713 474.521 234.581 474.189 234.581H474.164Z" fill="black"/>
<path opacity="0.5" d="M496.589 211.843H486.06C485.727 211.843 485.408 211.975 485.173 212.21C484.938 212.445 484.806 212.764 484.806 213.096C484.806 213.429 484.938 213.748 485.173 213.983C485.408 214.218 485.727 214.35 486.06 214.35H496.589C496.922 214.35 497.24 214.218 497.475 213.983C497.711 213.748 497.843 213.429 497.843 213.096C497.843 212.764 497.711 212.445 497.475 212.21C497.24 211.975 496.922 211.843 496.589 211.843Z" fill="black"/>
<path opacity="0.5" d="M495.235 245.963H486.06C485.727 245.963 485.408 246.095 485.173 246.33C484.938 246.565 484.806 246.884 484.806 247.217C484.806 247.549 484.938 247.868 485.173 248.103C485.408 248.338 485.727 248.47 486.06 248.47H495.235C495.568 248.47 495.887 248.338 496.122 248.103C496.357 247.868 496.489 247.549 496.489 247.217C496.489 246.884 496.357 246.565 496.122 246.33C495.887 246.095 495.568 245.963 495.235 245.963Z" fill="black"/>
<path opacity="0.5" d="M420.627 237.088H428.06C428.392 237.088 428.711 236.956 428.946 236.721C429.181 236.486 429.313 236.167 429.313 235.835C429.313 235.502 429.181 235.184 428.946 234.948C428.711 234.713 428.392 234.581 428.06 234.581H420.627C420.294 234.581 419.975 234.713 419.74 234.948C419.505 235.184 419.373 235.502 419.373 235.835C419.373 236.167 419.505 236.486 419.74 236.721C419.975 236.956 420.294 237.088 420.627 237.088Z" fill="black"/>
<path opacity="0.5" d="M429.301 245.963H420.627C420.294 245.963 419.975 246.095 419.74 246.33C419.505 246.565 419.373 246.884 419.373 247.217C419.373 247.549 419.505 247.868 419.74 248.103C419.975 248.338 420.294 248.47 420.627 248.47H429.301C429.633 248.47 429.952 248.338 430.187 248.103C430.422 247.868 430.554 247.549 430.554 247.217C430.554 246.884 430.422 246.565 430.187 246.33C429.952 246.095 429.633 245.963 429.301 245.963Z" fill="black"/>
<path opacity="0.5" d="M387.848 214.35H407.678C408.01 214.35 408.329 214.218 408.564 213.983C408.799 213.748 408.931 213.429 408.931 213.096C408.931 212.764 408.799 212.445 408.564 212.21C408.329 211.975 408.01 211.843 407.678 211.843H387.848C387.515 211.843 387.196 211.975 386.961 212.21C386.726 212.445 386.594 212.764 386.594 213.096C386.594 213.429 386.726 213.748 386.961 213.983C387.196 214.218 387.515 214.35 387.848 214.35Z" fill="black"/>
<path opacity="0.5" d="M387.848 225.719H401.047C401.379 225.719 401.698 225.587 401.933 225.352C402.168 225.117 402.3 224.798 402.3 224.465C402.3 224.133 402.168 223.814 401.933 223.579C401.698 223.344 401.379 223.212 401.047 223.212H387.848C387.515 223.212 387.196 223.344 386.961 223.579C386.726 223.814 386.594 224.133 386.594 224.465C386.594 224.798 386.726 225.117 386.961 225.352C387.196 225.587 387.515 225.719 387.848 225.719Z" fill="black"/>
<path opacity="0.5" d="M407.678 234.581H387.848C387.515 234.581 387.196 234.713 386.961 234.948C386.726 235.184 386.594 235.502 386.594 235.835C386.594 236.167 386.726 236.486 386.961 236.721C387.196 236.956 387.515 237.088 387.848 237.088H407.678C408.01 237.088 408.329 236.956 408.564 236.721C408.799 236.486 408.931 236.167 408.931 235.835C408.931 235.502 408.799 235.184 408.564 234.948C408.329 234.713 408.01 234.581 407.678 234.581Z" fill="black"/>
<path opacity="0.5" d="M397.763 245.963H387.848C387.515 245.963 387.196 246.095 386.961 246.33C386.726 246.565 386.594 246.884 386.594 247.217C386.594 247.549 386.726 247.868 386.961 248.103C387.196 248.338 387.515 248.47 387.848 248.47H397.763C398.095 248.47 398.414 248.338 398.649 248.103C398.884 247.868 399.016 247.549 399.016 247.217C399.016 246.884 398.884 246.565 398.649 246.33C398.414 246.095 398.095 245.963 397.763 245.963Z" fill="black"/>
</g>
<g opacity="0.5">
<path opacity="0.5" d="M430.567 181.583H383.636C383.303 181.583 382.984 181.451 382.749 181.216C382.514 180.981 382.382 180.662 382.382 180.329C382.382 179.997 382.514 179.678 382.749 179.443C382.984 179.208 383.303 179.076 383.636 179.076H430.567C430.899 179.076 431.218 179.208 431.453 179.443C431.688 179.678 431.82 179.997 431.82 180.329C431.82 180.662 431.688 180.981 431.453 181.216C431.218 181.451 430.899 181.583 430.567 181.583Z" fill="black"/>
</g>
<g opacity="0.5">
<path opacity="0.5" d="M414.108 188.615H383.636C383.303 188.615 382.984 188.483 382.749 188.248C382.514 188.013 382.382 187.694 382.382 187.362C382.382 187.029 382.514 186.71 382.749 186.475C382.984 186.24 383.303 186.108 383.636 186.108H414.108C414.441 186.108 414.76 186.24 414.995 186.475C415.23 186.71 415.362 187.029 415.362 187.362C415.362 187.694 415.23 188.013 414.995 188.248C414.76 188.483 414.441 188.615 414.108 188.615Z" fill="black"/>
</g>
<g opacity="0.5">
<path opacity="0.5" d="M444.192 268.601H383.636C383.303 268.601 382.984 268.469 382.749 268.234C382.514 267.999 382.382 267.68 382.382 267.348C382.382 267.016 382.514 266.697 382.749 266.462C382.984 266.227 383.303 266.094 383.636 266.094H444.192C444.525 266.094 444.844 266.227 445.079 266.462C445.314 266.697 445.446 267.016 445.446 267.348C445.446 267.68 445.314 267.999 445.079 268.234C444.844 268.469 444.525 268.601 444.192 268.601Z" fill="black"/>
</g>
<path d="M389.866 318.291H382.382V325.774H389.866V318.291Z" fill="#16D8B5"/>
<g opacity="0.5">
<path opacity="0.5" d="M432.46 323.292H395.306C394.973 323.292 394.654 323.16 394.419 322.925C394.184 322.69 394.052 322.371 394.052 322.038C394.052 321.706 394.184 321.387 394.419 321.152C394.654 320.917 394.973 320.785 395.306 320.785H432.46C432.792 320.785 433.111 320.917 433.346 321.152C433.581 321.387 433.713 321.706 433.713 322.038C433.713 322.371 433.581 322.69 433.346 322.925C433.111 323.16 432.792 323.292 432.46 323.292Z" fill="black"/>
</g>
<path d="M389.866 330.838H382.382V338.322H389.866V330.838Z" fill="#16D8B5"/>
<g opacity="0.5">
<path opacity="0.5" d="M432.46 335.827H395.306C394.973 335.827 394.654 335.695 394.419 335.46C394.184 335.225 394.052 334.906 394.052 334.574C394.052 334.241 394.184 333.922 394.419 333.687C394.654 333.452 394.973 333.32 395.306 333.32H432.46C432.792 333.32 433.111 333.452 433.346 333.687C433.581 333.922 433.713 334.241 433.713 334.574C433.713 334.906 433.581 335.225 433.346 335.46C433.111 335.695 432.792 335.827 432.46 335.827Z" fill="black"/>
</g>
<path d="M389.866 343.373H382.382V350.856H389.866V343.373Z" fill="#16D8B5"/>
<g opacity="0.5">
<path opacity="0.5" d="M432.46 348.375H395.306C394.973 348.375 394.654 348.243 394.419 348.008C394.184 347.772 394.052 347.454 394.052 347.121C394.052 346.789 394.184 346.47 394.419 346.235C394.654 346 394.973 345.868 395.306 345.868H432.46C432.792 345.868 433.111 346 433.346 346.235C433.581 346.47 433.713 346.789 433.713 347.121C433.713 347.454 433.581 347.772 433.346 348.008C433.111 348.243 432.792 348.375 432.46 348.375Z" fill="black"/>
</g>
<path d="M389.866 355.921H382.382V363.404H389.866V355.921Z" fill="#16D8B5"/>
<g opacity="0.5">
<path opacity="0.5" d="M432.46 360.922H395.306C394.973 360.922 394.654 360.79 394.419 360.555C394.184 360.32 394.052 360.001 394.052 359.669C394.052 359.336 394.184 359.018 394.419 358.782C394.654 358.547 394.973 358.415 395.306 358.415H432.46C432.792 358.415 433.111 358.547 433.346 358.782C433.581 359.018 433.713 359.336 433.713 359.669C433.713 360.001 433.581 360.32 433.346 360.555C433.111 360.79 432.792 360.922 432.46 360.922Z" fill="black"/>
</g>
<g opacity="0.5">
<path opacity="0.5" d="M501.001 279.808H392.272C391.94 279.808 391.621 279.676 391.386 279.441C391.151 279.206 391.019 278.887 391.019 278.554C391.019 278.222 391.151 277.903 391.386 277.668C391.621 277.433 391.94 277.301 392.272 277.301H501.001C501.334 277.301 501.653 277.433 501.888 277.668C502.123 277.903 502.255 278.222 502.255 278.554C502.255 278.887 502.123 279.206 501.888 279.441C501.653 279.676 501.334 279.808 501.001 279.808Z" fill="black"/>
<path opacity="0.5" d="M501.139 286.088H383.636C383.303 286.088 382.984 285.956 382.749 285.721C382.514 285.486 382.382 285.167 382.382 284.834C382.382 284.502 382.514 284.183 382.749 283.948C382.984 283.713 383.303 283.581 383.636 283.581H501.139C501.472 283.581 501.791 283.713 502.026 283.948C502.261 284.183 502.393 284.502 502.393 284.834C502.393 285.167 502.261 285.486 502.026 285.721C501.791 285.956 501.472 286.088 501.139 286.088Z" fill="black"/>
<path opacity="0.5" d="M501.277 292.368H383.774C383.441 292.368 383.122 292.236 382.887 292.001C382.652 291.766 382.52 291.447 382.52 291.114C382.52 290.782 382.652 290.463 382.887 290.228C383.122 289.993 383.441 289.861 383.774 289.861H501.277C501.61 289.861 501.929 289.993 502.164 290.228C502.399 290.463 502.531 290.782 502.531 291.114C502.531 291.447 502.399 291.766 502.164 292.001C501.929 292.236 501.61 292.368 501.277 292.368Z" fill="black"/>
<path opacity="0.5" d="M483.854 298.648H383.911C383.579 298.648 383.26 298.516 383.025 298.281C382.79 298.046 382.658 297.727 382.658 297.394C382.658 297.062 382.79 296.743 383.025 296.508C383.26 296.273 383.579 296.141 383.911 296.141H483.854C484.186 296.141 484.505 296.273 484.74 296.508C484.975 296.743 485.107 297.062 485.107 297.394C485.107 297.727 484.975 298.046 484.74 298.281C484.505 298.516 484.186 298.648 483.854 298.648Z" fill="black"/>
</g>
<path opacity="0.3" d="M389.866 330.838H382.382V338.322H389.866V330.838Z" fill="white"/>
<path opacity="0.5" d="M389.866 343.373H382.382V350.856H389.866V343.373Z" fill="white"/>
<path opacity="0.7" d="M389.866 355.921H382.382V363.404H389.866V355.921Z" fill="white"/>
<path d="M510.691 423.999C510.691 423.999 504.737 411.012 511.543 398.201C518.35 385.391 520.318 382.382 515.981 379.762C511.644 377.142 509.651 390.003 509.651 390.003C507.505 384.185 507.286 377.831 509.024 371.878C512.032 362.614 513.925 347.522 509.814 345.905C505.702 344.288 509.024 364.708 505.439 371.702C503.621 366.806 502.445 361.695 501.942 356.497C501.453 349.064 502.217 337.181 498.971 334.135C495.724 331.089 493.631 333.195 496.827 349.615C498.749 359.428 499.81 369.389 499.999 379.386C499.999 379.386 492.941 357.838 488.191 357.212C483.44 356.585 483.452 363.567 487.514 369.621C491.575 375.676 499.41 386.506 500.688 392.084C500.688 392.084 492.929 375.876 485.959 380.803C478.99 385.729 492.026 395.569 497.843 399.104C503.659 402.639 507.67 424.863 507.67 424.863L510.691 423.999Z" fill="#16D8B5"/>
<path opacity="0.2" d="M510.691 423.999C510.691 423.999 504.737 411.012 511.543 398.201C518.35 385.391 520.318 382.382 515.981 379.762C511.644 377.142 509.651 390.003 509.651 390.003C507.505 384.185 507.286 377.831 509.024 371.878C512.032 362.614 513.925 347.522 509.814 345.905C505.702 344.288 509.024 364.708 505.439 371.702C503.621 366.806 502.445 361.695 501.942 356.497C501.453 349.064 502.217 337.181 498.971 334.135C495.724 331.089 493.631 333.195 496.827 349.615C498.749 359.428 499.81 369.389 499.999 379.386C499.999 379.386 492.941 357.838 488.191 357.212C483.44 356.585 483.452 363.567 487.514 369.621C491.575 375.676 499.41 386.506 500.688 392.084C500.688 392.084 492.929 375.876 485.959 380.803C478.99 385.729 492.026 395.569 497.843 399.104C503.659 402.639 507.67 424.863 507.67 424.863L510.691 423.999Z" fill="black"/>
<path d="M505.99 429.326C505.99 429.326 511.794 416.252 504.837 403.554C497.88 390.856 495.875 387.86 500.174 385.165C504.474 382.47 506.63 395.318 506.63 395.318C508.707 389.477 508.852 383.123 507.043 377.193C503.922 367.967 501.841 352.912 505.94 351.232C510.039 349.553 506.956 370.035 510.616 376.954C512.378 372.039 513.495 366.915 513.938 361.712C514.339 354.253 513.424 342.383 516.645 339.287C519.867 336.19 521.973 338.271 518.964 354.742C517.163 364.582 516.223 374.56 516.156 384.563C516.156 384.563 522.963 362.915 527.726 362.263C532.49 361.611 532.54 368.531 528.554 374.648C524.567 380.765 516.871 391.721 515.655 397.311C515.655 397.311 523.176 381.016 530.246 385.854C537.316 390.693 524.354 400.708 518.588 404.331C512.822 407.954 509.037 430.191 509.037 430.191L505.99 429.326Z" fill="#16D8B5"/>
<path d="M532.74 420.012H484.844L488.717 454.283H528.854L532.74 420.012Z" fill="#263238"/>
<path d="M243.506 126.065H279.532C282.471 126.065 285.289 127.233 287.367 129.311C289.445 131.389 290.613 134.207 290.613 137.146V168.484C290.613 171.423 289.445 174.241 287.367 176.319C285.289 178.397 282.471 179.565 279.532 179.565H269.002L272.763 193.228L261.481 179.565H243.506C242.05 179.566 240.608 179.281 239.262 178.725C237.916 178.169 236.693 177.353 235.663 176.324C234.632 175.295 233.815 174.072 233.257 172.727C232.7 171.382 232.413 169.94 232.413 168.484V137.146C232.413 135.69 232.7 134.248 233.257 132.903C233.815 131.558 234.632 130.335 235.663 129.306C236.693 128.277 237.916 127.461 239.262 126.905C240.608 126.349 242.05 126.064 243.506 126.065Z" fill="#16D8B5"/>
<path opacity="0.7" d="M243.506 126.065H279.532C282.471 126.065 285.289 127.233 287.367 129.311C289.445 131.389 290.613 134.207 290.613 137.146V168.484C290.613 171.423 289.445 174.241 287.367 176.319C285.289 178.397 282.471 179.565 279.532 179.565H269.002L272.763 193.228L261.481 179.565H243.506C242.05 179.566 240.608 179.281 239.262 178.725C237.916 178.169 236.693 177.353 235.663 176.324C234.632 175.295 233.815 174.072 233.257 172.727C232.7 171.382 232.413 169.94 232.413 168.484V137.146C232.413 135.69 232.7 134.248 233.257 132.903C233.815 131.558 234.632 130.335 235.663 129.306C236.693 128.277 237.916 127.461 239.262 126.905C240.608 126.349 242.05 126.064 243.506 126.065Z" fill="white"/>
<path opacity="0.7" d="M256.066 159.646C262.262 159.646 267.285 154.624 267.285 148.428C267.285 142.232 262.262 137.209 256.066 137.209C249.87 137.209 244.847 142.232 244.847 148.428C244.847 154.624 249.87 159.646 256.066 159.646Z" fill="white"/>
<path d="M256.066 161.264C253.097 161.261 250.221 160.229 247.927 158.344C245.633 156.459 244.064 153.837 243.486 150.924C242.909 148.012 243.359 144.989 244.76 142.372C246.16 139.754 248.426 137.702 251.169 136.567C253.913 135.432 256.965 135.283 259.806 136.145C262.647 137.008 265.101 138.829 266.75 141.298C268.4 143.767 269.142 146.731 268.851 149.686C268.56 152.641 267.253 155.403 265.154 157.503C263.962 158.698 262.545 159.645 260.986 160.29C259.426 160.936 257.754 161.266 256.066 161.264ZM256.066 138.838C253.848 138.839 251.698 139.608 249.983 141.016C248.269 142.424 247.095 144.382 246.663 146.558C246.23 148.734 246.565 150.993 247.612 152.949C248.658 154.906 250.35 156.439 252.399 157.288C254.449 158.136 256.73 158.248 258.853 157.604C260.976 156.959 262.81 155.599 264.042 153.754C265.274 151.909 265.829 149.694 265.611 147.487C265.393 145.279 264.417 143.215 262.848 141.646C261.96 140.752 260.903 140.044 259.739 139.562C258.575 139.08 257.326 138.834 256.066 138.838Z" fill="#16D8B5"/>
<path d="M265.158 155.209L262.853 157.514L275.643 170.304L277.948 167.999L265.158 155.209Z" fill="#16D8B5"/>
<path d="M278.165 172.984C277.518 172.978 276.898 172.722 276.436 172.269L266.671 162.505C266.427 162.282 266.231 162.013 266.094 161.712C265.957 161.412 265.882 161.087 265.874 160.757C265.866 160.427 265.925 160.099 266.047 159.792C266.17 159.485 266.353 159.207 266.586 158.973C266.819 158.739 267.097 158.555 267.403 158.431C267.709 158.308 268.037 158.248 268.367 158.254C268.697 158.261 269.023 158.335 269.324 158.471C269.624 158.606 269.895 158.802 270.118 159.045L279.895 168.822C280.233 169.165 280.463 169.599 280.555 170.072C280.647 170.544 280.598 171.033 280.413 171.478C280.228 171.922 279.916 172.302 279.517 172.57C279.117 172.838 278.647 172.982 278.165 172.984Z" fill="#16D8B5"/>
<path d="M257.809 143.351C257.809 143.847 257.662 144.332 257.386 144.744C257.111 145.156 256.719 145.477 256.261 145.667C255.803 145.857 255.299 145.907 254.813 145.81C254.326 145.713 253.88 145.474 253.529 145.124C253.178 144.773 252.94 144.326 252.843 143.84C252.746 143.354 252.796 142.85 252.986 142.392C253.175 141.934 253.497 141.542 253.909 141.267C254.321 140.991 254.806 140.844 255.302 140.844C255.967 140.844 256.604 141.108 257.074 141.578C257.545 142.048 257.809 142.686 257.809 143.351Z" fill="white"/>
<path d="M261.531 145.181C261.531 145.429 261.458 145.671 261.32 145.878C261.182 146.084 260.987 146.244 260.758 146.339C260.529 146.434 260.277 146.459 260.033 146.411C259.79 146.362 259.567 146.243 259.392 146.068C259.216 145.892 259.097 145.669 259.048 145.426C259 145.183 259.025 144.931 259.12 144.702C259.215 144.472 259.375 144.277 259.582 144.139C259.788 144.001 260.03 143.928 260.278 143.928C260.61 143.928 260.929 144.06 261.164 144.295C261.399 144.53 261.531 144.849 261.531 145.181Z" fill="white"/>
<path d="M361.988 356.573H175.29V386.619H361.988V356.573Z" fill="#16D8B5"/>
<path opacity="0.8" d="M361.988 356.573H175.29V386.619H361.988V356.573Z" fill="white"/>
<path opacity="0.2" d="M361.988 364.52V362.075L234.167 363.091L361.988 364.52Z" fill="black"/>
<path opacity="0.2" d="M361.988 375.049V373.156L304.602 375.212L361.988 375.049Z" fill="black"/>
<path opacity="0.2" d="M361.988 382.094V379.649L269.466 381.066L361.988 382.094Z" fill="black"/>
<path opacity="0.2" d="M217.032 356.573L214.35 378.973L217.546 375.563C218.62 379.652 220.628 383.437 223.412 386.619C225.409 384.003 226.998 381.1 228.126 378.007L315.32 377.005L228.953 375.112C229.221 373.876 229.36 372.616 229.367 371.351C229.362 370.304 229.261 369.259 229.066 368.23L356.999 367.904L228.765 366.901C228.314 365.214 227.683 363.579 226.885 362.025C228.729 360.399 231.107 359.506 233.566 359.518H361.988V356.573H217.032Z" fill="black"/>
<path d="M219.915 371.427C219.925 375.028 221.362 378.479 223.911 381.024C226.46 383.568 229.914 384.999 233.516 385.002H364.144C364.275 385.002 364.406 385.028 364.527 385.078C364.649 385.129 364.76 385.203 364.853 385.296C364.946 385.389 365.02 385.499 365.07 385.621C365.12 385.743 365.146 385.873 365.146 386.005V387.083C365.146 387.349 365.041 387.604 364.853 387.792C364.665 387.98 364.41 388.086 364.144 388.086H171.179C168.978 388.086 166.799 387.65 164.767 386.804C162.735 385.957 160.891 384.717 159.341 383.154C157.791 381.591 156.566 379.737 155.736 377.698C154.907 375.66 154.489 373.477 154.507 371.276C154.616 366.827 156.47 362.6 159.669 359.506C162.868 356.413 167.155 354.702 171.605 354.742H364.144C364.41 354.742 364.665 354.848 364.853 355.036C365.041 355.224 365.146 355.479 365.146 355.745V356.811C365.146 357.077 365.041 357.332 364.853 357.52C364.665 357.708 364.41 357.814 364.144 357.814H233.917C230.268 357.806 226.76 359.225 224.144 361.769C221.528 364.313 220.01 367.779 219.915 371.427Z" fill="#16D8B5"/>
<path opacity="0.4" d="M219.915 371.427C219.925 375.028 221.362 378.479 223.911 381.024C226.46 383.568 229.914 384.999 233.516 385.002H364.144C364.275 385.002 364.406 385.028 364.527 385.078C364.649 385.129 364.76 385.203 364.853 385.296C364.946 385.389 365.02 385.499 365.07 385.621C365.12 385.743 365.146 385.873 365.146 386.005V387.083C365.146 387.349 365.041 387.604 364.853 387.792C364.665 387.98 364.41 388.086 364.144 388.086H171.179C168.978 388.086 166.799 387.65 164.767 386.804C162.735 385.957 160.891 384.717 159.341 383.154C157.791 381.591 156.566 379.737 155.736 377.698C154.907 375.66 154.489 373.477 154.507 371.276C154.616 366.827 156.47 362.6 159.669 359.506C162.868 356.413 167.155 354.702 171.605 354.742H364.144C364.41 354.742 364.665 354.848 364.853 355.036C365.041 355.224 365.146 355.479 365.146 355.745V356.811C365.146 357.077 365.041 357.332 364.853 357.52C364.665 357.708 364.41 357.814 364.144 357.814H233.917C230.268 357.806 226.76 359.225 224.144 361.769C221.528 364.313 220.01 367.779 219.915 371.427Z" fill="white"/>
<path d="M219.915 371.426C219.925 375.028 221.362 378.479 223.911 381.024C226.46 383.568 229.914 384.999 233.516 385.002H364.144C364.275 385.002 364.406 385.028 364.527 385.078C364.649 385.129 364.76 385.203 364.853 385.296C364.946 385.389 365.02 385.499 365.07 385.621C365.121 385.743 365.146 385.873 365.146 386.005V387.083C365.146 387.349 365.041 387.604 364.853 387.792C364.665 387.98 364.41 388.086 364.144 388.086H232.764C230.563 388.084 228.383 387.647 226.352 386.8C224.32 385.953 222.476 384.713 220.925 383.151C219.375 381.589 218.148 379.735 217.317 377.697C216.485 375.659 216.065 373.477 216.079 371.276C216.194 366.834 218.047 362.614 221.239 359.522C224.431 356.431 228.709 354.715 233.152 354.742H364.144C364.41 354.742 364.665 354.848 364.853 355.036C365.041 355.224 365.146 355.479 365.146 355.745V356.811C365.146 357.077 365.041 357.332 364.853 357.52C364.665 357.708 364.41 357.813 364.144 357.813H233.917C230.268 357.806 226.76 359.225 224.144 361.769C221.528 364.313 220.01 367.779 219.915 371.426Z" fill="#16D8B5"/>
<path d="M244.509 363.329V375.375L248.871 371.013L253.096 375.237V363.329H244.509Z" fill="#263238"/>
<path opacity="0.6" d="M219.915 371.426C219.925 375.028 221.362 378.479 223.911 381.024C226.46 383.568 229.914 384.999 233.516 385.002H364.144C364.275 385.002 364.406 385.028 364.527 385.078C364.649 385.129 364.76 385.203 364.853 385.296C364.946 385.389 365.02 385.499 365.07 385.621C365.121 385.743 365.146 385.873 365.146 386.005V387.083C365.146 387.349 365.041 387.604 364.853 387.792C364.665 387.98 364.41 388.086 364.144 388.086H232.764C230.563 388.084 228.383 387.647 226.352 386.8C224.32 385.953 222.476 384.713 220.925 383.151C219.375 381.589 218.148 379.735 217.317 377.697C216.485 375.659 216.065 373.477 216.079 371.276C216.194 366.834 218.047 362.614 221.239 359.522C224.431 356.431 228.709 354.715 233.152 354.742H364.144C364.41 354.742 364.665 354.848 364.853 355.036C365.041 355.224 365.146 355.479 365.146 355.745V356.811C365.146 357.077 365.041 357.332 364.853 357.52C364.665 357.708 364.41 357.813 364.144 357.813H233.917C230.268 357.806 226.76 359.225 224.144 361.769C221.528 364.313 220.01 367.779 219.915 371.426Z" fill="white"/>
<path d="M371 422.783H184.303V452.829H371V422.783Z" fill="#16D8B5"/>
<path opacity="0.7" d="M371 422.783H184.303V452.829H371V422.783Z" fill="white"/>
<path opacity="0.2" d="M371 430.717V428.273L243.18 429.301L371 430.717Z" fill="black"/>
<path opacity="0.2" d="M371 441.247V439.366L313.615 441.41L371 441.247Z" fill="black"/>
<path opacity="0.2" d="M371 448.291V445.86L278.479 447.264L371 448.291Z" fill="black"/>
<path opacity="0.2" d="M226.045 422.783L223.337 445.183L226.534 441.773C227.62 445.861 229.631 449.643 232.413 452.829C234.4 450.205 235.985 447.298 237.113 444.205L324.307 443.202L237.941 441.322C238.211 440.087 238.354 438.826 238.367 437.562C238.358 436.514 238.253 435.469 238.053 434.44L366.024 434.152L237.778 433.149C237.326 431.466 236.696 429.835 235.897 428.286C237.732 426.636 240.111 425.721 242.578 425.716H371.038V422.783H226.045Z" fill="black"/>
<path d="M228.928 437.624C228.921 439.414 229.268 441.187 229.949 442.842C230.63 444.498 231.631 446.002 232.894 447.269C234.158 448.537 235.66 449.542 237.313 450.227C238.966 450.912 240.739 451.264 242.528 451.262H373.156C373.422 451.262 373.677 451.368 373.865 451.556C374.054 451.744 374.159 451.999 374.159 452.265V453.343C374.159 453.609 374.054 453.864 373.865 454.052C373.677 454.24 373.422 454.346 373.156 454.346H169.925C167.726 454.343 165.55 453.905 163.52 453.058C161.491 452.211 159.649 450.972 158.1 449.411C156.551 447.851 155.325 445.999 154.493 443.964C153.662 441.928 153.241 439.748 153.254 437.549C153.359 433.095 155.213 428.861 158.414 425.762C161.616 422.664 165.909 420.949 170.364 420.99H373.156C373.422 420.99 373.677 421.096 373.865 421.284C374.054 421.472 374.159 421.727 374.159 421.993V423.071C374.159 423.337 374.054 423.592 373.865 423.78C373.677 423.968 373.422 424.074 373.156 424.074H242.93C239.291 424.066 235.793 425.477 233.178 428.007C230.564 430.537 229.039 433.987 228.928 437.624Z" fill="#263238"/>
<path opacity="0.2" d="M228.928 437.624C228.921 439.414 229.268 441.187 229.949 442.842C230.63 444.498 231.631 446.002 232.894 447.269C234.158 448.537 235.66 449.542 237.313 450.227C238.966 450.912 240.739 451.264 242.528 451.262H373.156C373.422 451.262 373.677 451.368 373.865 451.556C374.054 451.744 374.159 451.999 374.159 452.265V453.343C374.159 453.609 374.054 453.864 373.865 454.052C373.677 454.24 373.422 454.346 373.156 454.346H169.925C167.726 454.343 165.55 453.905 163.52 453.058C161.491 452.211 159.649 450.972 158.1 449.411C156.551 447.851 155.325 445.999 154.493 443.964C153.662 441.928 153.241 439.748 153.254 437.549C153.359 433.095 155.213 428.861 158.414 425.762C161.616 422.664 165.909 420.949 170.364 420.99H373.156C373.422 420.99 373.677 421.096 373.865 421.284C374.054 421.472 374.159 421.727 374.159 421.993V423.071C374.159 423.337 374.054 423.592 373.865 423.78C373.677 423.968 373.422 424.074 373.156 424.074H242.93C239.291 424.066 235.793 425.477 233.178 428.007C230.564 430.537 229.039 433.987 228.928 437.624Z" fill="white"/>
<path d="M228.928 437.624C228.921 439.414 229.268 441.187 229.949 442.842C230.63 444.498 231.631 446.002 232.894 447.269C234.158 448.537 235.66 449.542 237.313 450.227C238.966 450.912 240.739 451.264 242.528 451.262H373.156C373.422 451.262 373.677 451.368 373.865 451.556C374.053 451.744 374.159 451.999 374.159 452.265V453.343C374.159 453.609 374.053 453.864 373.865 454.052C373.677 454.24 373.422 454.346 373.156 454.346H241.776C239.576 454.346 237.398 453.911 235.367 453.065C233.336 452.219 231.493 450.98 229.943 449.419C228.393 447.857 227.168 446.005 226.338 443.967C225.507 441.93 225.088 439.749 225.105 437.549C225.207 433.096 227.058 428.862 230.257 425.763C233.457 422.664 237.748 420.95 242.203 420.99H373.156C373.422 420.99 373.677 421.096 373.865 421.284C374.053 421.472 374.159 421.727 374.159 421.993V423.071C374.159 423.337 374.053 423.592 373.865 423.78C373.677 423.968 373.422 424.074 373.156 424.074H242.93C239.291 424.066 235.793 425.477 233.178 428.007C230.564 430.537 229.039 433.987 228.928 437.624Z" fill="#263238"/>
<path d="M243.18 433.813V445.86L247.53 441.497L251.754 445.722V433.813H243.18Z" fill="#16D8B5"/>
<path opacity="0.4" d="M228.928 437.624C228.921 439.414 229.268 441.187 229.949 442.842C230.63 444.498 231.631 446.002 232.894 447.269C234.158 448.537 235.66 449.542 237.313 450.227C238.966 450.912 240.739 451.264 242.528 451.262H373.156C373.422 451.262 373.677 451.368 373.865 451.556C374.053 451.744 374.159 451.999 374.159 452.265V453.343C374.159 453.609 374.053 453.864 373.865 454.052C373.677 454.24 373.422 454.346 373.156 454.346H241.776C239.576 454.346 237.398 453.911 235.367 453.065C233.336 452.219 231.493 450.98 229.943 449.419C228.393 447.857 227.168 446.005 226.338 443.967C225.507 441.93 225.088 439.749 225.105 437.549C225.207 433.096 227.058 428.862 230.257 425.763C233.457 422.664 237.748 420.95 242.203 420.99H373.156C373.422 420.99 373.677 421.096 373.865 421.284C374.053 421.472 374.159 421.727 374.159 421.993V423.071C374.159 423.337 374.053 423.592 373.865 423.78C373.677 423.968 373.422 424.074 373.156 424.074H242.93C239.291 424.066 235.793 425.477 233.178 428.007C230.564 430.537 229.039 433.987 228.928 437.624Z" fill="white"/>
<path d="M167.506 419.674H236.675V389.665H167.506V419.674Z" fill="#16D8B5"/>
<path opacity="0.8" d="M167.506 419.674H236.675V389.665H167.506V419.674Z" fill="white"/>
<path opacity="0.2" d="M231.134 392.611H167.506V389.677H231.059L231.134 392.611Z" fill="black"/>
<path opacity="0.2" d="M231.134 395.168L173.736 396.396L231.134 397.612V395.168Z" fill="black"/>
<path opacity="0.2" d="M231.134 406.261L170.352 407.289L231.134 408.154V406.261Z" fill="black"/>
<path opacity="0.2" d="M231.134 412.755L170.891 413.971L231.134 415.186V412.755Z" fill="black"/>
<path opacity="0.2" d="M167.506 399.442L225.782 401.197L167.506 402.426V399.442Z" fill="black"/>
<path d="M321.888 404.519C321.881 408.123 320.446 411.577 317.896 414.124C315.347 416.671 311.891 418.104 308.287 418.107H164.31C164.044 418.107 163.789 418.213 163.601 418.401C163.413 418.589 163.307 418.844 163.307 419.11V420.175C163.307 420.441 163.413 420.696 163.601 420.884C163.789 421.072 164.044 421.178 164.31 421.178H309.04C311.24 421.181 313.42 420.748 315.453 419.904C317.485 419.059 319.33 417.82 320.88 416.258C322.431 414.696 323.656 412.842 324.485 410.803C325.314 408.765 325.731 406.582 325.711 404.381C325.609 399.928 323.758 395.694 320.558 392.595C317.359 389.496 313.068 387.782 308.613 387.822H164.31C164.044 387.822 163.789 387.928 163.601 388.116C163.413 388.304 163.307 388.559 163.307 388.825V389.903C163.307 390.169 163.413 390.424 163.601 390.612C163.789 390.8 164.044 390.906 164.31 390.906H307.886C311.535 390.898 315.043 392.318 317.659 394.861C320.275 397.405 321.793 400.871 321.888 404.519Z" fill="#263238"/>
<path opacity="0.4" d="M321.888 404.519C321.881 408.123 320.446 411.577 317.896 414.124C315.347 416.671 311.891 418.104 308.287 418.107H164.31C164.044 418.107 163.789 418.213 163.601 418.401C163.413 418.589 163.307 418.844 163.307 419.11V420.175C163.307 420.441 163.413 420.696 163.601 420.884C163.789 421.072 164.044 421.178 164.31 421.178H309.04C311.24 421.181 313.42 420.748 315.453 419.904C317.485 419.059 319.33 417.82 320.88 416.258C322.431 414.696 323.656 412.842 324.485 410.803C325.314 408.765 325.731 406.582 325.711 404.381C325.609 399.928 323.758 395.694 320.558 392.595C317.359 389.496 313.068 387.782 308.613 387.822H164.31C164.044 387.822 163.789 387.928 163.601 388.116C163.413 388.304 163.307 388.559 163.307 388.825V389.903C163.307 390.169 163.413 390.424 163.601 390.612C163.789 390.8 164.044 390.906 164.31 390.906H307.886C311.535 390.898 315.043 392.318 317.659 394.861C320.275 397.405 321.793 400.871 321.888 404.519Z" fill="white"/>
<path d="M374.397 404.695C374.397 408.684 372.812 412.51 369.992 415.331C367.171 418.152 363.345 419.737 359.355 419.737H231.134V389.653H359.368C363.355 389.656 367.178 391.242 369.996 394.063C372.814 396.883 374.397 400.707 374.397 404.695Z" fill="#16D8B5"/>
<path opacity="0.7" d="M231.134 389.677V419.762H359.38C363.37 419.762 367.196 418.177 370.017 415.356C372.838 412.535 374.422 408.709 374.422 404.72C374.422 400.73 372.838 396.904 370.017 394.083C367.196 391.262 363.37 389.677 359.38 389.677H231.134Z" fill="white"/>
<path opacity="0.2" d="M231.134 397.612V395.168L358.954 396.196L231.134 397.612Z" fill="black"/>
<path opacity="0.2" d="M231.134 408.154V406.261L288.52 408.317L231.134 408.154Z" fill="black"/>
<path opacity="0.2" d="M231.134 415.186V412.755L323.655 414.159L231.134 415.186Z" fill="black"/>
<path opacity="0.2" d="M359.581 392.611C362.048 392.616 364.427 393.531 366.262 395.181C365.463 396.735 364.828 398.37 364.369 400.057L236.136 401.059L364.081 401.373C363.881 402.406 363.776 403.455 363.768 404.507C363.77 405.773 363.917 407.034 364.206 408.267L277.827 410.147L365.009 411.163C365.764 413.243 366.734 415.238 367.904 417.117C370.528 415.291 372.503 412.676 373.54 409.652C374.578 406.628 374.625 403.353 373.675 400.3C372.725 397.247 370.827 394.577 368.257 392.676C365.687 390.775 362.577 389.742 359.38 389.728H231.134V392.661L359.581 392.611Z" fill="black"/>
<path d="M373.207 404.519C373.2 408.123 371.765 411.577 369.215 414.124C366.665 416.671 363.21 418.104 359.606 418.107H228.978C228.712 418.107 228.457 418.213 228.269 418.401C228.081 418.589 227.975 418.844 227.975 419.11V420.175C227.975 420.441 228.081 420.696 228.269 420.884C228.457 421.072 228.712 421.178 228.978 421.178H360.358C362.559 421.181 364.739 420.748 366.771 419.904C368.804 419.059 370.648 417.82 372.199 416.258C373.749 414.696 374.975 412.842 375.804 410.803C376.633 408.765 377.05 406.582 377.03 404.381C376.928 399.928 375.077 395.694 371.877 392.595C368.677 389.496 364.386 387.782 359.932 387.822H228.978C228.712 387.822 228.457 387.928 228.269 388.116C228.081 388.304 227.975 388.559 227.975 388.825V389.903C227.975 390.169 228.081 390.424 228.269 390.612C228.457 390.8 228.712 390.906 228.978 390.906H359.205C362.854 390.898 366.361 392.318 368.978 394.861C371.594 397.405 373.112 400.871 373.207 404.519Z" fill="#263238"/>
<path d="M358.954 400.708V412.755L354.592 408.392L350.368 412.617V400.708H358.954Z" fill="#16D8B5"/>
<path d="M392.836 231.385H389.703C389.12 231.397 388.549 231.547 388.037 231.824C387.525 232.101 387.086 232.496 386.757 232.977L383.648 237.514C383.031 238.411 382.639 239.442 382.503 240.522C382.368 241.602 382.494 242.698 382.871 243.719L383.347 244.973C388.549 245.224 394.366 241.664 394.366 241.664L396.146 240.836C396.513 240.676 396.846 240.444 397.123 240.155C397.401 239.865 397.618 239.523 397.763 239.149C397.907 238.775 397.976 238.375 397.965 237.974C397.955 237.573 397.864 237.178 397.7 236.813L396.108 233.365C395.811 232.755 395.345 232.244 394.764 231.892C394.184 231.541 393.515 231.365 392.836 231.385Z" fill="#EEC1BB"/>
<path d="M333.433 236.913C341.48 243.418 350.167 249.686 359.756 253.522L358.565 253.271C359.443 253.484 361.749 252.607 362.953 252.017C369.646 248.758 375.989 243.87 382.006 239.407C382.622 238.961 383.377 238.751 384.135 238.813C384.892 238.876 385.603 239.207 386.137 239.748C386.672 240.288 386.995 241.002 387.049 241.761C387.103 242.519 386.884 243.271 386.431 243.882C380.427 251.403 366.914 266.684 356.209 264.452C344.476 260.955 334.11 254.424 324.871 246.439C318.88 240.673 326.914 231.661 333.433 236.913Z" fill="#EBC0BB"/>
<path d="M316.548 228.051C313.615 236.223 318.341 244.346 329.71 253.91C335.363 253.07 342.997 241.476 342.997 241.476C342.997 241.476 327.002 225.481 316.548 228.051Z" fill="#16D8B5"/>
<path d="M326.325 177.283C326.325 177.283 315.132 165.826 300.541 180.204C285.95 194.582 283.104 242.215 283.104 242.215L321.186 249.611C321.186 249.611 326.112 243.957 328.644 227.649C331.176 211.341 332.518 195.748 335.727 192.112C338.936 188.477 326.325 177.283 326.325 177.283Z" fill="#263238"/>
<path d="M359.029 418.508L350.781 415.224L354.003 403.203L356.974 392.172L367.403 394.478L362.978 407.201L359.029 418.508Z" fill="#EEC1BB"/>
<path opacity="0.2" d="M362.878 407.465L353.915 403.429L356.936 392.285L367.378 394.541L362.878 407.465Z" fill="black"/>
<path d="M296.617 310.193C296.617 310.193 365.56 300.892 384.714 313.126C403.867 325.36 366.776 399.868 366.776 399.868L355.169 397.361C355.169 397.361 363.868 338.296 363.216 335.827C362.564 333.357 330.098 349.465 285.662 350.994L296.617 310.193Z" fill="#263238"/>
<path opacity="0.2" d="M296.617 310.193C296.617 310.193 365.56 300.892 384.714 313.126C403.867 325.36 366.776 399.868 366.776 399.868L355.169 397.361C355.169 397.361 363.868 338.296 363.216 335.827C362.564 333.357 330.098 349.465 285.662 350.994L296.617 310.193Z" fill="black"/>
<path d="M354.529 393.601L369.133 398.339L366.513 404.995L353.1 400.433L354.529 393.601Z" fill="#263238"/>
<path d="M366.663 420.363C365.084 420.363 362.301 417.856 361.724 417.255C361.691 417.223 361.665 417.185 361.649 417.142V417.067C361.646 416.987 361.668 416.908 361.712 416.841C361.787 416.753 363.617 414.334 365.372 414.259C365.637 414.232 365.905 414.264 366.157 414.353C366.408 414.442 366.637 414.585 366.826 414.773C367.265 415.186 367.415 415.588 367.265 415.964C367.027 416.565 366.011 416.891 364.871 417.092C365.794 417.223 366.662 417.61 367.378 418.207C367.503 418.333 367.601 418.484 367.663 418.651C367.726 418.817 367.753 418.995 367.741 419.173C367.741 419.9 367.353 420.188 367.077 420.288C366.945 420.34 366.805 420.365 366.663 420.363ZM362.777 417.393C364.231 418.646 366.162 420 366.851 419.724C366.851 419.724 367.102 419.636 367.127 419.135C367.132 419.04 367.117 418.945 367.083 418.856C367.048 418.768 366.995 418.687 366.926 418.621C366.25 417.869 364.156 417.518 362.777 417.418V417.393ZM365.51 414.886H365.397C364.289 415.177 363.306 415.824 362.602 416.728C364.52 416.64 366.475 416.277 366.676 415.763C366.738 415.6 366.525 415.362 366.387 415.237C366.148 415.019 365.834 414.902 365.51 414.911V414.886Z" fill="#577AFA"/>
<path d="M349.239 410.097C349.565 409.17 360.759 413.62 360.759 413.62C360.759 413.62 365.472 423.058 371.79 426.894C378.108 430.73 372.943 433.588 365.309 431.093L346.406 424.939C340.954 423.184 345.867 419.674 349.239 410.097Z" fill="#2E353A"/>
<path opacity="0.4" d="M354.529 393.601L369.133 398.339L366.513 404.995L353.1 400.433L354.529 393.601Z" fill="white"/>
<path d="M395.005 442.362L386.456 444.769L381.693 433.262L377.356 422.707L387.033 418.195L391.257 430.993L395.005 442.362Z" fill="#EEC1BB"/>
<path d="M382.658 438.727C382.658 437.75 394.717 438.815 394.717 438.815C394.717 438.815 401.924 446.524 409.069 448.392C416.214 450.26 412.09 454.471 404.055 454.283L384.187 453.782C378.484 453.644 382.169 448.868 382.658 438.727Z" fill="#2E353A"/>
<path d="M401.047 442.036C399.29 441.798 397.591 441.241 396.033 440.394L395.945 440.332C395.941 440.298 395.941 440.265 395.945 440.231C395.94 440.202 395.94 440.173 395.945 440.144C395.932 440.103 395.932 440.059 395.945 440.018C395.945 439.88 397.061 437.123 398.703 436.483C398.95 436.382 399.217 436.338 399.484 436.353C399.75 436.368 400.01 436.443 400.245 436.571C400.784 436.834 401.034 437.173 401.009 437.587C400.947 438.226 400.044 438.84 399.041 439.341C399.972 439.202 400.924 439.328 401.786 439.705C401.94 439.79 402.074 439.907 402.18 440.047C402.286 440.187 402.361 440.348 402.401 440.52C402.481 440.736 402.495 440.971 402.439 441.195C402.383 441.419 402.26 441.62 402.087 441.773C401.783 441.982 401.414 442.075 401.047 442.036ZM397.073 440.231C398.841 441.021 401.059 441.761 401.649 441.297C401.649 441.297 401.862 441.134 401.749 440.658C401.728 440.564 401.687 440.476 401.629 440.4C401.57 440.325 401.496 440.263 401.41 440.219C400.533 439.692 398.427 439.981 397.073 440.231ZM399.33 436.96C399.171 436.959 399.013 436.989 398.866 437.048C397.899 437.633 397.144 438.511 396.71 439.555C398.527 438.928 400.295 438.013 400.345 437.474C400.345 437.298 400.082 437.123 399.919 437.048C399.732 436.974 399.53 436.944 399.33 436.96Z" fill="#577AFA"/>
<path opacity="0.2" d="M391.332 431.256L381.768 433.5L377.381 422.82L387.045 418.258L391.332 431.256Z" fill="black"/>
<path d="M316.172 319.105C316.172 319.105 315.182 305.467 314.718 302.684C314.335 299.926 313.769 297.195 313.026 294.511C310.005 285.423 269.479 296.116 269.479 296.116L268.326 302.383C268.326 302.383 250.037 336.867 262.259 349.29C266.019 353.05 273.252 354.755 280.685 354.705C280.685 354.705 303.411 355.795 345.679 353.827C345.679 353.827 342.546 378.446 377.381 426.681L389.038 422.921C389.038 422.921 366.024 335.351 364.068 333.796C347.221 320.183 316.172 319.105 316.172 319.105Z" fill="#263238"/>
<path d="M375.275 426.092L389.753 420.965L391.721 427.847L378.296 432.385L375.275 426.092Z" fill="#263238"/>
<path d="M329.798 234.581C329.798 234.581 328.344 238.141 326.313 244.359C325.824 245.813 325.323 247.417 324.796 249.147C324.107 251.416 323.367 253.91 322.628 256.668C322.089 258.624 321.55 260.667 321.023 262.823C320.497 264.979 319.933 267.31 319.394 269.679C319.394 269.955 319.268 270.243 319.218 270.519C316.926 280.218 315.251 290.053 314.204 299.964L269.68 296.078C269.673 286.306 270.179 276.54 271.196 266.821C271.999 258.401 273.555 250.069 275.847 241.927C277.614 236.06 279.896 231.021 282.829 227.725C282.829 227.775 306.971 219.853 329.798 234.581Z" fill="#16D8B5"/>
<path d="M307.109 221.382C293.709 217.095 288.507 227.649 288.507 227.649L295.64 226.947L310.118 245.123L318.604 234.13L323.944 237.001C323.944 237.001 318.717 225.092 307.109 221.382Z" fill="#16D8B5"/>
<path opacity="0.6" d="M307.109 221.382C293.709 217.095 288.507 227.649 288.507 227.649L295.64 226.947L310.118 245.123L318.604 234.13L323.944 237.001C323.944 237.001 318.717 225.092 307.109 221.382Z" fill="white"/>
<path d="M309.741 244.133L297.457 225.744C303.248 223.124 307.084 212.043 307.924 205.801L316.598 218.912C313.765 223.124 311.872 227.938 318.366 231.573C318.391 231.573 309.729 244.095 309.741 244.133Z" fill="#EEC1BB"/>
<path opacity="0.2" d="M311.459 211.153L316.598 218.912C315.923 219.875 315.34 220.899 314.856 221.971C312.286 220.818 309.554 216.957 310.193 214.287C310.411 213.171 310.841 212.107 311.459 211.153Z" fill="black"/>
<path d="M268.99 297.495L282.916 298.41L282.415 302.346L267.624 301.28L268.99 297.495Z" fill="black"/>
<path d="M315.32 304.69L284.095 302.458L284.596 298.522L314.818 300.516L315.32 304.69Z" fill="black"/>
<path d="M303.875 304.677H303.75L299.989 304.427C299.54 304.397 299.121 304.193 298.821 303.858C298.521 303.523 298.364 303.083 298.385 302.634L298.485 300.127C298.484 299.89 298.533 299.655 298.631 299.439C298.728 299.223 298.871 299.03 299.049 298.873C299.215 298.715 299.412 298.593 299.628 298.515C299.844 298.437 300.074 298.406 300.303 298.422L304.213 298.648C304.441 298.661 304.664 298.719 304.87 298.818C305.075 298.918 305.258 299.058 305.409 299.23C305.559 299.401 305.674 299.601 305.747 299.818C305.819 300.034 305.847 300.263 305.83 300.491L305.642 303.098C305.601 303.535 305.396 303.941 305.069 304.234C304.741 304.527 304.314 304.685 303.875 304.677ZM299.688 300.114L299.575 302.621C299.572 302.744 299.615 302.863 299.697 302.954C299.779 303.045 299.892 303.101 300.014 303.11L303.775 303.374C303.899 303.38 304.021 303.338 304.115 303.256C304.209 303.174 304.266 303.059 304.276 302.935L304.464 300.34C304.47 300.277 304.464 300.213 304.444 300.153C304.425 300.093 304.393 300.037 304.351 299.989C304.31 299.944 304.259 299.907 304.204 299.881C304.148 299.855 304.087 299.841 304.025 299.839L300.114 299.613C299.99 299.609 299.868 299.654 299.776 299.738C299.729 299.779 299.691 299.828 299.665 299.885C299.639 299.941 299.625 300.002 299.626 300.064L299.688 300.114Z" fill="white"/>
<path opacity="0.5" d="M375.275 426.092L389.753 420.965L391.721 427.847L378.296 432.385L375.275 426.092Z" fill="white"/>
<path d="M338.359 202.429C338.294 202.431 338.23 202.414 338.175 202.381C338.119 202.347 338.074 202.299 338.046 202.241C337.698 201.565 337.202 200.976 336.594 200.52C335.986 200.064 335.282 199.753 334.536 199.608C334.489 199.607 334.443 199.596 334.401 199.576C334.359 199.556 334.321 199.527 334.29 199.492C334.26 199.457 334.237 199.415 334.223 199.371C334.209 199.326 334.205 199.279 334.21 199.232C334.222 199.143 334.268 199.061 334.337 199.003C334.407 198.945 334.496 198.915 334.586 198.919C335.453 199.067 336.273 199.417 336.98 199.939C337.688 200.462 338.263 201.143 338.66 201.927C338.681 201.968 338.694 202.012 338.698 202.057C338.702 202.102 338.697 202.148 338.683 202.191C338.669 202.235 338.647 202.275 338.617 202.309C338.587 202.343 338.55 202.371 338.509 202.391L338.359 202.429Z" fill="#263238"/>
<path d="M334.172 207.856C334.309 209.596 334.654 211.313 335.2 212.971C334.757 213.242 334.247 213.386 333.727 213.386C333.207 213.386 332.698 213.242 332.254 212.971L334.172 207.856Z" fill="#D4827D"/>
<path d="M336.943 205.989C336.617 206.766 335.94 207.242 335.413 207.017C334.887 206.791 334.724 205.989 335.05 205.212C335.376 204.434 336.053 203.958 336.579 204.184C337.106 204.409 337.256 205.199 336.943 205.989Z" fill="#263238"/>
<path d="M336.341 204.134H338.309C338.309 204.134 336.88 205.249 336.341 204.134Z" fill="#263238"/>
<path d="M308.087 212.732C308.134 212.861 308.197 212.983 308.275 213.096C308.4 213.347 308.538 213.572 308.676 213.823C309.481 215.366 310.574 216.741 311.897 217.872C316.172 221.419 319.857 222.547 323.179 221.632C323.342 221.632 323.492 221.532 323.655 221.482C328.569 219.627 332.43 213.961 335.702 206.315C337.118 203.354 338.046 200.183 338.447 196.926C338.447 196.926 338.447 196.813 338.447 196.788C338.447 196.763 338.447 196.525 338.447 196.412C338.607 194.538 338.296 192.655 337.543 190.932C336.79 189.209 335.619 187.701 334.135 186.547C332.867 185.503 331.489 184.604 330.023 183.864C315.783 176.469 301.205 198.969 308.087 212.732Z" fill="#EEC1BB"/>
<path d="M338.447 196.801C338.447 196.801 334.16 207.28 322.427 206.829C322.427 206.829 313.051 215.24 306.946 212.344C298.61 208.395 297.257 193.027 306.119 182.536C317.639 168.923 341.706 179.477 338.447 196.801Z" fill="#263238"/>
<path d="M328.757 206.377C329.547 204.798 329.61 201.526 326.99 200.649C324.37 199.771 319.719 205.274 325.235 209.799C326.025 210.451 327.165 209.661 328.757 206.377Z" fill="#EEC1BB"/>
<path d="M326.325 177.283C326.325 177.283 337.168 179.69 340.528 186.233C344.464 193.88 344.464 199.734 333.458 203.281C333.458 203.281 319.957 189.919 314.028 188.327C310.571 187.377 307.041 186.719 303.474 186.359C307.723 175.127 322.051 172.395 326.325 177.283Z" fill="#263238"/>
<path d="M322.452 206.828C315.633 220.454 300.641 243.606 284.659 227.273C284.659 227.273 290.4 208.796 301.995 201.175C313.59 193.554 322.452 206.828 322.452 206.828Z" fill="#263238"/>
<path d="M319.983 229.555C325.811 233.867 318.353 248.056 325.711 251.215C325.02 250.259 324.585 249.142 324.449 247.97C324.313 246.798 324.48 245.611 324.934 244.522C326.476 240.661 332.731 230.457 330.236 216.644L319.983 229.555Z" fill="#263238"/>
<path opacity="0.2" d="M289.786 259.476C289.786 259.476 280.259 265.931 271.246 266.734C272.038 258.344 273.577 250.042 275.847 241.927C277 241.277 278.286 240.9 279.607 240.824C286.301 240.949 288.745 247.229 288.745 247.229C289.47 251.27 289.818 255.37 289.786 259.476Z" fill="black"/>
<path d="M324.558 304.188L322.552 301.782C322.175 301.342 321.699 300.999 321.162 300.781C320.626 300.563 320.045 300.476 319.469 300.528L313.978 300.929C312.893 301.008 311.843 301.347 310.916 301.916C309.989 302.485 309.212 303.269 308.651 304.201L307.949 305.367C311.008 309.591 317.413 311.91 317.413 311.91L319.168 312.775C319.521 312.965 319.907 313.084 320.306 313.124C320.705 313.164 321.108 313.125 321.491 313.008C321.875 312.892 322.231 312.7 322.54 312.445C322.849 312.19 323.105 311.876 323.292 311.521L325.047 308.062C325.361 307.441 325.483 306.741 325.396 306.05C325.309 305.36 325.017 304.712 324.558 304.188Z" fill="#EEC1BB"/>
<path d="M285.963 246.565C285.81 254.459 286.376 262.351 287.655 270.143C288.125 272.636 288.731 275.101 289.472 277.526L288.921 276.436C291.816 280.861 296.053 284.96 299.751 288.971L305.943 295.364L312.211 301.794C312.763 302.35 313.09 303.091 313.128 303.874C313.166 304.656 312.913 305.425 312.418 306.033C311.923 306.64 311.221 307.042 310.446 307.163C309.672 307.283 308.881 307.112 308.225 306.683C305.63 305.041 303.211 303.311 300.704 301.556C293.057 295.803 285.348 290.425 279.394 282.754C274.205 271.259 272.939 258.486 273.377 246.001C274.117 237.665 286.201 238.279 286.1 246.64L285.963 246.565Z" fill="#EBC0BB"/>
<path d="M282.402 227.85C274.192 230.67 270.795 239.445 270.431 254.286C274.631 258.185 288.444 256.894 288.444 256.894C288.444 256.894 290.939 234.406 282.402 227.85Z" fill="#16D8B5"/>
<path d="M370.875 315.721V319.644C370.875 320.66 369.621 321.073 368.669 321.073H289.56C288.545 321.073 287.316 320.66 287.316 319.644V315.683L370.875 315.721Z" fill="#263238"/>
<path opacity="0.4" d="M370.875 315.721V319.644C370.875 320.66 369.621 321.073 368.669 321.073H289.56C288.545 321.073 287.316 320.66 287.316 319.644V315.683L370.875 315.721Z" fill="white"/>
<path opacity="0.2" d="M370.875 315.721V319.644C370.875 320.66 369.621 321.073 368.669 321.073H316.498C315.482 321.073 314.279 320.66 314.279 319.644V315.683L370.875 315.721Z" fill="black"/>
<path d="M384.112 274.631L374.686 317.338C374.519 318.025 374.127 318.638 373.573 319.078C373.02 319.518 372.335 319.762 371.627 319.77H320.233C319.914 319.76 319.601 319.677 319.319 319.527C319.036 319.377 318.792 319.164 318.606 318.905C318.419 318.646 318.295 318.347 318.242 318.031C318.19 317.716 318.21 317.393 318.303 317.087L327.717 274.693C327.907 274.048 328.314 273.488 328.869 273.107C329.423 272.726 330.092 272.547 330.763 272.6H382.219C383.573 272.6 384.413 273.264 384.112 274.631Z" fill="#263238"/>
<path opacity="0.4" d="M384.112 274.631L374.686 317.338C374.518 318.025 374.127 318.638 373.573 319.078C373.019 319.518 372.335 319.762 371.627 319.77H321.938C321.617 319.762 321.303 319.681 321.019 319.531C320.735 319.382 320.49 319.17 320.302 318.91C320.114 318.65 319.988 318.351 319.935 318.034C319.882 317.718 319.902 317.394 319.995 317.087L329.409 274.693C329.6 274.046 330.008 273.484 330.566 273.102C331.123 272.721 331.795 272.544 332.467 272.6H382.169C383.573 272.6 384.413 273.264 384.112 274.631Z" fill="white"/>
<path opacity="0.2" d="M358.741 296.341C358.741 299.989 354.817 302.96 351.947 302.96C349.076 302.96 347.372 299.989 348.186 296.341C349.001 292.694 351.872 289.823 354.68 289.723C353.865 293.371 355.62 296.341 358.44 296.341H358.741Z" fill="black"/>
</svg>
